<svg width="47" height="54" viewBox="0 0 47 54" fill="none" xmlns="http://www.w3.org/2000/svg">
<path fill-rule="evenodd" clip-rule="evenodd" d="M22.1588 11.205V13.4594C22.6062 13.4268 23.0615 13.41 23.5232 13.41C23.9849 13.41 24.4402 13.4268 24.8876 13.4594V11.205C24.8876 9.61443 26.2128 8.325 27.8476 8.325C29.4823 8.325 30.8076 9.61443 30.8076 11.205C30.8076 11.3264 30.7998 11.4461 30.7848 11.5636L30.8076 11.565L30.2832 14.7679C33.0979 16.038 34.9238 18.081 34.9238 20.385V22.365C34.9238 26.2172 29.8196 29.34 23.5232 29.34C17.2268 29.34 12.1226 26.2172 12.1226 22.365V20.385C12.1226 18.081 13.9484 16.038 16.7632 14.7679L16.2388 11.565L16.2615 11.5636C16.2465 11.4461 16.2388 11.3264 16.2388 11.205C16.2388 9.61443 17.564 8.325 19.1988 8.325C20.8336 8.325 22.1588 9.61443 22.1588 11.205Z" fill="#FACFD8"/>
<path fill-rule="evenodd" clip-rule="evenodd" d="M20.7466 14.9404V11.205C20.7466 10.3733 20.0536 9.69905 19.1988 9.69905C18.344 9.69905 17.651 10.3733 17.651 11.205C17.651 11.2697 17.6551 11.3328 17.663 11.3943L17.7412 12.0073L18.3257 15.5775L17.3573 16.0144C14.7775 17.1785 13.5348 18.8507 13.5348 20.385V22.365C13.5348 23.6504 14.3899 25.0182 16.2135 26.1339C18.0183 27.2381 20.5989 27.966 23.5232 27.966C26.4475 27.966 29.0281 27.2381 30.8329 26.1339C32.6565 25.0182 33.5116 23.6504 33.5116 22.365V20.385C33.5116 18.8507 32.2688 17.1785 29.689 16.0144L28.7206 15.5775L29.3052 12.0071L29.3834 11.3943C29.3912 11.3328 29.3953 11.2697 29.3953 11.205C29.3953 10.3733 28.7024 9.69905 27.8476 9.69905C26.9927 9.69905 26.2998 10.3733 26.2998 11.205V14.9404L24.7819 14.8296C24.3698 14.7996 23.9497 14.7841 23.5232 14.7841C23.0966 14.7841 22.6766 14.7996 22.2644 14.8296L20.7466 14.9404ZM30.2832 14.7679C33.0979 16.038 34.9238 18.081 34.9238 20.385V22.365C34.9238 26.2172 29.8196 29.34 23.5232 29.34C17.2268 29.34 12.1226 26.2172 12.1226 22.365V20.385C12.1226 18.081 13.9484 16.038 16.7632 14.7679L16.2388 11.565L16.2615 11.5636C16.2614 11.5629 16.2614 11.5622 16.2613 11.5615C16.2466 11.4463 16.239 11.329 16.2388 11.21C16.2388 11.2083 16.2388 11.2067 16.2388 11.205C16.2388 9.61443 17.564 8.325 19.1988 8.325C20.8336 8.325 22.1588 9.61443 22.1588 11.205V13.4594C22.5907 13.4279 23.03 13.4112 23.4753 13.4101C23.4913 13.41 23.5072 13.41 23.5232 13.41C23.5391 13.41 23.5551 13.41 23.571 13.4101C24.0164 13.4112 24.4557 13.4279 24.8876 13.4594V11.205C24.8876 9.61443 26.2128 8.325 27.8476 8.325C29.4823 8.325 30.8076 9.61443 30.8076 11.205C30.8076 11.2067 30.8076 11.2083 30.8076 11.21C30.8073 11.329 30.7997 11.4463 30.7851 11.5615C30.785 11.5622 30.7849 11.5629 30.7848 11.5636L30.8076 11.565L30.2832 14.7679Z" fill="#EC6998"/>
<path d="M35.8951 21.285C35.8951 22.2046 34.7562 22.95 33.3514 22.95C31.9465 22.95 30.8076 22.2046 30.8076 21.285C30.8076 20.3654 31.9465 19.62 33.3514 19.62C34.7562 19.62 35.8951 20.3654 35.8951 21.285Z" fill="#EC6998"/>
<path d="M16.1925 21.285C16.1925 22.2046 15.0536 22.95 13.6487 22.95C12.2439 22.95 11.105 22.2046 11.105 21.285C11.105 20.3654 12.2439 19.62 13.6487 19.62C15.0536 19.62 16.1925 20.3654 16.1925 21.285Z" fill="#EC6998"/>
<path d="M31.6401 24.12C31.6401 27.0029 28.0164 29.34 23.5464 29.34C19.0763 29.34 15.4526 27.0029 15.4526 24.12C15.4526 21.2371 19.0763 18.9 23.5464 18.9C28.0164 18.9 31.6401 21.2371 31.6401 24.12Z" fill="black"/>
<mask id="mask0" mask-type="alpha" maskUnits="userSpaceOnUse" x="15" y="18" width="17" height="12">
<path d="M31.6401 24.12C31.6401 27.0029 28.0164 29.34 23.5464 29.34C19.0763 29.34 15.4526 27.0029 15.4526 24.12C15.4526 21.2371 19.0763 18.9 23.5464 18.9C28.0164 18.9 31.6401 21.2371 31.6401 24.12Z" fill="white"/>
</mask>
<g mask="url(#mask0)">
<path d="M24.1013 18.9225C24.1013 19.432 23.8632 19.845 23.5695 19.845C23.2757 19.845 23.0376 19.432 23.0376 18.9225C23.0376 18.413 23.2757 18 23.5695 18C23.8632 18 24.1013 18.413 24.1013 18.9225Z" fill="white"/>
<path d="M31.5884 27.4275C31.5884 28.7323 27.9647 29.79 23.4946 29.79C19.0246 29.79 15.4009 28.7323 15.4009 27.4275C15.4009 26.1227 19.0246 25.065 23.4946 25.065C27.9647 25.065 31.5884 26.1227 31.5884 27.4275Z" fill="#EC6998"/>
</g>
<path d="M20.7916 17.3238C20.8824 17.497 20.3102 17.9577 19.5136 18.3526C18.7171 18.7475 17.9977 18.9271 17.907 18.7538C17.8162 18.5805 18.3884 18.1199 19.185 17.725C19.9816 17.3301 20.7009 17.1505 20.7916 17.3238Z" fill="black"/>
<path d="M26.2084 17.3238C26.1176 17.497 26.6898 17.9577 27.4864 18.3526C28.283 18.7475 29.0023 18.9271 29.093 18.7538C29.1838 18.5805 28.6116 18.1199 27.815 17.725C27.0184 17.3301 26.2991 17.1505 26.2084 17.3238Z" fill="black"/>
<circle cx="31" cy="37" r="16" fill="#F0B90B"/>
<path d="M31.5003 27.0442L34.0909 29.6893L27.5676 36.193L24.9771 33.6102L31.5003 27.0442Z" fill="white"/>
<path d="M35.433 30.9651L38.0236 33.6102L27.5676 44.0349L24.9771 41.452L35.433 30.9651Z" fill="white"/>
<path d="M23.6345 34.886L26.2251 37.5311L23.6345 40.114L21.0439 37.5311L23.6345 34.886Z" fill="white"/>
<path d="M39.3657 34.886L41.9562 37.5311L31.5003 47.9558L28.9097 45.373L39.3657 34.886Z" fill="white"/>
<path d="M31.5213 40.8727C29.3841 49.4452 20.7016 54.6622 12.1281 52.5245C3.55818 50.3874 -1.65886 41.7043 0.479231 33.1325C2.61545 24.5591 11.298 19.3417 19.8688 21.4788C28.4417 23.616 33.6584 32.3 31.521 40.8729L31.5212 40.8727H31.5213Z" fill="#F7931A"/>
<path fill-rule="evenodd" clip-rule="evenodd" d="M23.0561 34.7219C23.3746 32.5924 21.7534 31.4478 19.5364 30.6841L20.2556 27.7996L18.4997 27.362L17.7996 30.1707C17.3379 30.0555 16.8639 29.947 16.3927 29.8395L17.0979 27.0123L15.3431 26.5748L14.6235 29.4584C14.2415 29.3715 13.8663 29.2855 13.5023 29.1949L13.5043 29.1859L11.0828 28.5812L10.6157 30.4566C10.6157 30.4566 11.9185 30.7552 11.891 30.7736C12.6021 30.9511 12.7307 31.4218 12.7093 31.7949L11.8901 35.0811C11.9391 35.0935 12.0026 35.1115 12.0726 35.1397L12.0217 35.127C11.9784 35.1161 11.9333 35.1049 11.887 35.0938L10.7388 39.6973C10.6519 39.9133 10.4313 40.2375 9.93416 40.1144C9.95176 40.1399 8.65792 39.7959 8.65792 39.7959L7.78613 41.8059L10.0712 42.3755C10.3214 42.4383 10.5686 42.5027 10.8133 42.5665L10.8135 42.5666C10.9845 42.6112 11.1544 42.6554 11.3231 42.6986L10.5965 45.6162L12.3504 46.0538L13.07 43.1671C13.5491 43.2972 14.0141 43.4171 14.4693 43.5302L13.7522 46.4033L15.5082 46.8409L16.2347 43.9287C19.229 44.4953 21.4804 44.2669 22.428 41.5586C23.1917 39.3781 22.39 38.1204 20.8148 37.3002C21.9621 37.0356 22.8263 36.281 23.0567 34.7222L23.0562 34.7218L23.0561 34.7219ZM19.0442 40.3477C18.5463 42.3482 15.4149 41.5211 13.9822 41.1427L13.982 41.1426C13.8532 41.1086 13.7381 41.0782 13.6399 41.0539L14.6042 37.1885C14.7239 37.2183 14.8702 37.2512 15.036 37.2884C16.5179 37.621 19.5543 38.3024 19.0442 40.3477H19.0442ZM15.3333 35.4944C16.5278 35.8131 19.1335 36.5086 19.5873 34.6903H19.5874C20.0508 32.8307 17.5185 32.2701 16.2817 31.9963C16.1426 31.9655 16.0198 31.9383 15.9196 31.9133L15.0454 35.419C15.1279 35.4396 15.2248 35.4654 15.3333 35.4944Z" fill="white"/>
</svg>
