<svg width="47" height="53" viewBox="0 0 47 53" fill="none" xmlns="http://www.w3.org/2000/svg">
<path fill-rule="evenodd" clip-rule="evenodd" d="M22.1588 11.205V13.4594C22.6062 13.4268 23.0615 13.41 23.5232 13.41C23.9849 13.41 24.4402 13.4268 24.8876 13.4594V11.205C24.8876 9.61443 26.2128 8.325 27.8476 8.325C29.4823 8.325 30.8076 9.61443 30.8076 11.205C30.8076 11.3264 30.7998 11.4461 30.7848 11.5636L30.8076 11.565L30.2832 14.7679C33.0979 16.038 34.9238 18.081 34.9238 20.385V22.365C34.9238 26.2172 29.8196 29.34 23.5232 29.34C17.2268 29.34 12.1226 26.2172 12.1226 22.365V20.385C12.1226 18.081 13.9484 16.038 16.7632 14.7679L16.2388 11.565L16.2615 11.5636C16.2465 11.4461 16.2388 11.3264 16.2388 11.205C16.2388 9.61443 17.564 8.325 19.1988 8.325C20.8336 8.325 22.1588 9.61443 22.1588 11.205Z" fill="#FACFD8"/>
<path fill-rule="evenodd" clip-rule="evenodd" d="M20.7466 14.9404V11.205C20.7466 10.3733 20.0536 9.69905 19.1988 9.69905C18.344 9.69905 17.651 10.3733 17.651 11.205C17.651 11.2697 17.6551 11.3328 17.663 11.3943L17.7412 12.0073L18.3257 15.5775L17.3573 16.0144C14.7775 17.1785 13.5348 18.8507 13.5348 20.385V22.365C13.5348 23.6504 14.3899 25.0182 16.2135 26.1339C18.0183 27.2381 20.5989 27.966 23.5232 27.966C26.4475 27.966 29.0281 27.2381 30.8329 26.1339C32.6565 25.0182 33.5116 23.6504 33.5116 22.365V20.385C33.5116 18.8507 32.2688 17.1785 29.689 16.0144L28.7206 15.5775L29.3052 12.0071L29.3834 11.3943C29.3912 11.3328 29.3953 11.2697 29.3953 11.205C29.3953 10.3733 28.7024 9.69905 27.8476 9.69905C26.9927 9.69905 26.2998 10.3733 26.2998 11.205V14.9404L24.7819 14.8296C24.3698 14.7996 23.9497 14.7841 23.5232 14.7841C23.0966 14.7841 22.6766 14.7996 22.2644 14.8296L20.7466 14.9404ZM30.2832 14.7679C33.0979 16.038 34.9238 18.081 34.9238 20.385V22.365C34.9238 26.2172 29.8196 29.34 23.5232 29.34C17.2268 29.34 12.1226 26.2172 12.1226 22.365V20.385C12.1226 18.081 13.9484 16.038 16.7632 14.7679L16.2388 11.565L16.2615 11.5636C16.2614 11.5629 16.2614 11.5622 16.2613 11.5615C16.2466 11.4463 16.239 11.329 16.2388 11.21C16.2388 11.2083 16.2388 11.2067 16.2388 11.205C16.2388 9.61443 17.564 8.325 19.1988 8.325C20.8336 8.325 22.1588 9.61443 22.1588 11.205V13.4594C22.5907 13.4279 23.03 13.4112 23.4753 13.4101C23.4913 13.41 23.5072 13.41 23.5232 13.41C23.5391 13.41 23.5551 13.41 23.571 13.4101C24.0164 13.4112 24.4557 13.4279 24.8876 13.4594V11.205C24.8876 9.61443 26.2128 8.325 27.8476 8.325C29.4823 8.325 30.8076 9.61443 30.8076 11.205C30.8076 11.2067 30.8076 11.2083 30.8076 11.21C30.8073 11.329 30.7997 11.4463 30.7851 11.5615C30.785 11.5622 30.7849 11.5629 30.7848 11.5636L30.8076 11.565L30.2832 14.7679Z" fill="#EC6998"/>
<path d="M35.8951 21.285C35.8951 22.2046 34.7562 22.95 33.3514 22.95C31.9465 22.95 30.8076 22.2046 30.8076 21.285C30.8076 20.3654 31.9465 19.62 33.3514 19.62C34.7562 19.62 35.8951 20.3654 35.8951 21.285Z" fill="#EC6998"/>
<path d="M16.1925 21.285C16.1925 22.2046 15.0536 22.95 13.6487 22.95C12.2439 22.95 11.105 22.2046 11.105 21.285C11.105 20.3654 12.2439 19.62 13.6487 19.62C15.0536 19.62 16.1925 20.3654 16.1925 21.285Z" fill="#EC6998"/>
<path d="M31.6401 24.12C31.6401 27.0029 28.0164 29.34 23.5464 29.34C19.0763 29.34 15.4526 27.0029 15.4526 24.12C15.4526 21.2371 19.0763 18.9 23.5464 18.9C28.0164 18.9 31.6401 21.2371 31.6401 24.12Z" fill="black"/>
<mask id="mask0" mask-type="alpha" maskUnits="userSpaceOnUse" x="15" y="18" width="17" height="12">
<path d="M31.6401 24.12C31.6401 27.0029 28.0164 29.34 23.5464 29.34C19.0763 29.34 15.4526 27.0029 15.4526 24.12C15.4526 21.2371 19.0763 18.9 23.5464 18.9C28.0164 18.9 31.6401 21.2371 31.6401 24.12Z" fill="white"/>
</mask>
<g mask="url(#mask0)">
<path d="M24.1013 18.9225C24.1013 19.432 23.8632 19.845 23.5695 19.845C23.2757 19.845 23.0376 19.432 23.0376 18.9225C23.0376 18.413 23.2757 18 23.5695 18C23.8632 18 24.1013 18.413 24.1013 18.9225Z" fill="white"/>
<path d="M31.5884 27.4275C31.5884 28.7323 27.9647 29.79 23.4946 29.79C19.0246 29.79 15.4009 28.7323 15.4009 27.4275C15.4009 26.1227 19.0246 25.065 23.4946 25.065C27.9647 25.065 31.5884 26.1227 31.5884 27.4275Z" fill="#EC6998"/>
</g>
<path d="M20.7916 17.3238C20.8824 17.497 20.3102 17.9577 19.5136 18.3526C18.7171 18.7475 17.9977 18.9271 17.907 18.7538C17.8162 18.5805 18.3884 18.1199 19.185 17.725C19.9816 17.3301 20.7009 17.1505 20.7916 17.3238Z" fill="black"/>
<path d="M26.2084 17.3238C26.1176 17.497 26.6898 17.9577 27.4864 18.3526C28.283 18.7475 29.0023 18.9271 29.093 18.7538C29.1838 18.5805 28.6116 18.1199 27.815 17.725C27.0184 17.3301 26.2991 17.1505 26.2084 17.3238Z" fill="black"/>
<circle cx="31" cy="37" r="16" fill="#F0B90B"/>
<path d="M31.5003 27.0442L34.0909 29.6893L27.5676 36.193L24.9771 33.6102L31.5003 27.0442Z" fill="white"/>
<path d="M35.433 30.9651L38.0236 33.6102L27.5676 44.0349L24.9771 41.452L35.433 30.9651Z" fill="white"/>
<path d="M23.6345 34.886L26.2251 37.5311L23.6345 40.114L21.0439 37.5311L23.6345 34.886Z" fill="white"/>
<path d="M39.3657 34.886L41.9562 37.5311L31.5003 47.9558L28.9097 45.373L39.3657 34.886Z" fill="white"/>
<path d="M16 21C24.8374 21 32 28.1641 32 37C32 45.8374 24.8374 53 16 53C7.16407 53 0 45.8366 0 37C0 28.1641 7.16407 21 16 21Z" fill="#F5AC37"/>
<path fill-rule="evenodd" clip-rule="evenodd" d="M8.38024 45.8201V45.8799L8.37736 45.882V45.8921H15.3175C16.103 45.9029 16.8857 45.8403 17.6575 45.702C18.4704 45.5429 19.2624 45.2923 20.0177 44.9525C20.3452 44.8008 20.6594 44.6175 20.9764 44.4325C21.0566 44.3857 21.1371 44.3388 21.218 44.2922C21.5909 44.0266 21.9481 43.7385 22.2879 43.4325C23.2181 42.5916 23.9382 41.5425 24.3882 40.3725C24.4184 40.2415 24.5466 40.1572 24.6783 40.1824H26.5683C26.7188 40.1824 26.7685 40.132 26.7685 39.9621V38.7518C26.7786 38.6359 26.7786 38.5185 26.7685 38.4026C26.7685 38.3723 26.7763 38.3421 26.7841 38.3119C26.7996 38.2517 26.815 38.1918 26.7685 38.1319H25.1895C24.9987 38.1319 24.9987 38.1117 24.9987 37.9418C25.0534 37.3326 25.0534 36.7214 24.9987 36.1122C24.9886 35.9322 25.029 35.9322 25.1686 35.9322H26.5489C26.7095 35.9322 26.7692 35.8919 26.7692 35.7321V34.0919C26.7642 33.9832 26.7617 33.9282 26.7329 33.9003C26.7033 33.8716 26.6459 33.8716 26.5295 33.8716H24.7395C24.5998 33.8953 24.4659 33.801 24.4407 33.6613C24.2355 33.1249 23.9742 32.6116 23.6595 32.1313C23.3427 31.6575 22.9856 31.2126 22.5896 30.8015C22.0633 30.2759 21.4721 29.8194 20.8299 29.4414C19.8615 28.879 18.8023 28.4852 17.7 28.2814C17.165 28.1828 16.6243 28.123 16.08 28.1014H8.5804C8.38024 28.1014 8.38024 28.1418 8.38024 28.3016V33.6916C8.38024 33.8817 8.33992 33.8817 8.19015 33.8817H6.04021C5.88037 33.8817 5.88037 33.9112 5.88037 34.0213V35.781C5.88037 35.9409 5.93005 35.9409 6.05029 35.9409H8.22039C8.38024 35.9409 8.38024 35.9704 8.38024 36.0906V37.9706C8.38024 38.1405 8.32984 38.1405 8.20023 38.1405H5.88037V40.0406C5.88037 40.2004 5.93005 40.2004 6.05029 40.2004H8.22039C8.38024 40.2004 8.38024 40.2199 8.38024 40.3502V42.7003V43.4901V45.8201ZM22.1907 33.7103C22.208 33.7549 22.208 33.8046 22.1907 33.85H22.2389C22.2188 33.9097 22.1187 33.9299 22.1187 33.9299H10.5791C10.3891 33.9299 10.3891 33.8896 10.3891 33.7398V30.1902C10.3891 30.0599 10.4092 30.0001 10.559 30.0001H15.9288C16.5005 29.9951 17.0707 30.0548 17.6287 30.1801C18.7347 30.4422 19.7635 30.9635 20.629 31.7C20.8018 31.8289 20.9559 31.9808 21.0891 32.15C21.3713 32.4301 21.619 32.7419 21.8292 33.0803C21.9689 33.2783 22.0892 33.4893 22.1907 33.7103ZM22.6695 38.1297H16.5898H10.6295C10.5079 38.1297 10.448 38.1297 10.4185 38.0997C10.3898 38.0706 10.3898 38.0132 10.3898 37.9V36.1202C10.3898 35.9798 10.4301 35.9301 10.5799 35.9301H22.6796C22.8099 35.9301 22.8697 35.9798 22.8697 36.1C22.9193 36.7192 22.9193 37.3413 22.8697 37.9598C22.8603 38.1297 22.7991 38.1297 22.6695 38.1297ZM22.1907 40.2098C22.0208 40.1911 21.8494 40.1911 21.6795 40.2098H10.5899C10.4402 40.2098 10.3898 40.2098 10.3898 40.41V43.8804C10.3898 44.0402 10.3898 44.0806 10.5899 44.0806H15.7099C15.9547 44.0993 16.1995 44.082 16.4393 44.0309C17.1823 43.9776 17.9131 43.8163 18.6101 43.5506C18.8635 43.4628 19.1083 43.3483 19.3395 43.2108H19.4093C20.6096 42.5865 21.5844 41.6059 22.1993 40.402C22.1993 40.402 22.2692 40.2508 22.1907 40.2112V40.2098Z" fill="#FEFEFD"/>
</svg>
