<svg width="48" height="49" viewBox="0 0 48 49" fill="none" xmlns="http://www.w3.org/2000/svg">
<path fill-rule="evenodd" clip-rule="evenodd" d="M25.6177 12.9914C25.6177 11.1472 24.1227 9.65222 22.2785 9.65222C20.4344 9.65222 18.9394 11.1472 18.9394 12.9914C18.9394 13.1322 18.9481 13.2709 18.965 13.4072L18.9394 13.4088L19.5309 17.1223C16.3556 18.5948 14.2959 20.9636 14.2959 23.6349V25.9306C14.2959 30.3969 20.0539 34.0176 27.1568 34.0176C34.2597 34.0176 40.0178 30.3969 40.0178 25.9306V23.6349C40.0178 20.9636 37.958 18.5948 34.7827 17.1223L35.3743 13.4088L35.3486 13.4072C35.3656 13.2709 35.3743 13.1322 35.3743 12.9914C35.3743 11.1472 33.8793 9.65222 32.0351 9.65222C30.191 9.65222 28.696 11.1472 28.696 12.9914V15.6052C28.1913 15.5674 27.6777 15.5479 27.1568 15.5479C26.636 15.5479 26.1223 15.5674 25.6177 15.6052V12.9914Z" fill="#FACFD8"/>
<path fill-rule="evenodd" clip-rule="evenodd" d="M19.5309 17.1223C16.3556 18.5948 14.2959 20.9636 14.2959 23.6349V25.9306C14.2959 30.3969 20.0539 34.0176 27.1568 34.0176C34.2597 34.0176 40.0178 30.3969 40.0178 25.9306V23.6349C40.0178 20.9636 37.958 18.5948 34.7827 17.1223L35.3743 13.4088L35.3486 13.4072C35.3487 13.4063 35.3488 13.4055 35.3489 13.4047C35.3654 13.2711 35.374 13.1351 35.3743 12.9971C35.3743 12.9952 35.3743 12.9933 35.3743 12.9914C35.3743 11.1472 33.8793 9.65222 32.0351 9.65222C30.191 9.65222 28.696 11.1472 28.696 12.9914V15.6052C28.3521 15.5794 28.0041 15.5622 27.6525 15.5538C27.488 15.5499 27.3228 15.5479 27.1568 15.5479C26.9909 15.5479 26.8256 15.5499 26.6612 15.5538C26.3096 15.5622 25.9615 15.5794 25.6177 15.6052V12.9914C25.6177 11.1472 24.1227 9.65222 22.2785 9.65222C20.4344 9.65222 18.9394 11.1472 18.9394 12.9914C18.9394 12.9933 18.9394 12.9952 18.9394 12.9971C18.9396 13.1351 18.9482 13.2711 18.9647 13.4047C18.9648 13.4055 18.9649 13.4063 18.965 13.4072L18.9394 13.4088L19.5309 17.1223ZM20.09 13.9986L20.6855 17.7371L19.9699 18.0689C16.9683 19.461 15.3394 21.5481 15.3394 23.6349V25.9306C15.3394 27.6772 16.4678 29.4134 18.6182 30.7656C20.7547 32.109 23.7708 32.9741 27.1568 32.9741C30.5428 32.9741 33.5589 32.109 35.6954 30.7656C37.8458 29.4134 38.9743 27.6772 38.9743 25.9306V23.6349C38.9743 21.5481 37.3454 19.461 34.3437 18.0689L33.6282 17.7371L34.2236 13.9988L34.3131 13.2785C34.3247 13.1849 34.3308 13.0891 34.3308 12.9914C34.3308 11.7235 33.303 10.6957 32.0351 10.6957C30.7673 10.6957 29.7395 11.7235 29.7395 12.9914V16.7299L28.6179 16.6458C28.1393 16.6099 27.6517 16.5914 27.1568 16.5914C26.662 16.5914 26.1744 16.6099 25.6957 16.6458L24.5742 16.7299V12.9914C24.5742 11.7235 23.5464 10.6957 22.2785 10.6957C21.0107 10.6957 19.9829 11.7235 19.9829 12.9914C19.9829 13.0891 19.9889 13.1849 20.0006 13.2785L20.09 13.9986Z" fill="#EC6998"/>
<path d="M41.1132 24.6784C41.1132 25.7445 39.8284 26.6088 38.2436 26.6088C36.6588 26.6088 35.374 25.7445 35.374 24.6784C35.374 23.6122 36.6588 22.7479 38.2436 22.7479C39.8284 22.7479 41.1132 23.6122 41.1132 24.6784Z" fill="#EC6998"/>
<path d="M18.8871 24.6784C18.8871 25.7445 17.6024 26.6088 16.0175 26.6088C14.4327 26.6088 13.1479 25.7445 13.1479 24.6784C13.1479 23.6122 14.4327 22.7479 16.0175 22.7479C17.6024 22.7479 18.8871 23.6122 18.8871 24.6784Z" fill="#EC6998"/>
<path d="M36.3132 27.9654C36.3132 31.3079 32.2254 34.0176 27.1827 34.0176C22.1401 34.0176 18.0522 31.3079 18.0522 27.9654C18.0522 24.6228 22.1401 21.9132 27.1827 21.9132C32.2254 21.9132 36.3132 24.6228 36.3132 27.9654Z" fill="black"/>
<mask id="mask0" mask-type="alpha" maskUnits="userSpaceOnUse" x="18" y="21" width="19" height="14">
<path d="M36.3132 27.9654C36.3132 31.3079 32.2254 34.0176 27.1827 34.0176C22.1401 34.0176 18.0522 31.3079 18.0522 27.9654C18.0522 24.6228 22.1401 21.9132 27.1827 21.9132C32.2254 21.9132 36.3132 24.6228 36.3132 27.9654Z" fill="white"/>
</mask>
<g mask="url(#mask0)">
<path d="M27.8089 21.9392C27.8089 22.53 27.5403 23.0088 27.2089 23.0088C26.8775 23.0088 26.6089 22.53 26.6089 21.9392C26.6089 21.3485 26.8775 20.8697 27.2089 20.8697C27.5403 20.8697 27.8089 21.3485 27.8089 21.9392Z" fill="white"/>
<path d="M36.2551 31.8002C36.2551 33.3129 32.1672 34.5393 27.1246 34.5393C22.082 34.5393 17.9941 33.3129 17.9941 31.8002C17.9941 30.2874 22.082 29.061 27.1246 29.061C32.1672 29.061 36.2551 30.2874 36.2551 31.8002Z" fill="#EC6998"/>
</g>
<path d="M24.0757 20.0856C24.1781 20.2865 23.5326 20.8206 22.634 21.2784C21.7354 21.7363 20.924 21.9446 20.8216 21.7437C20.7192 21.5428 21.3647 21.0087 22.2633 20.5509C23.1619 20.093 23.9733 19.8847 24.0757 20.0856Z" fill="black"/>
<path d="M30.1855 20.0856C30.0831 20.2865 30.7286 20.8206 31.6272 21.2784C32.5258 21.7363 33.3373 21.9446 33.4396 21.7437C33.542 21.5428 32.8965 21.0087 31.9979 20.5509C31.0993 20.093 30.2879 19.8847 30.1855 20.0856Z" fill="black"/>
<circle cx="14" cy="35" r="14" fill="white"/>
<g clip-path="url(#clip0)">
<path d="M14.5255 26.25C10.8587 26.2647 7.88973 29.2242 7.875 32.8794C7.875 33.6115 7.99353 34.3386 8.22569 35.0329C8.39893 35.5055 8.91305 35.76 9.3956 35.6139C9.86202 35.4356 10.1096 34.9273 9.96092 34.4519C9.76383 33.9107 9.67615 33.3367 9.70211 32.762C9.78206 30.122 11.9935 28.0461 14.642 28.1258C17.2904 28.2056 19.3728 30.41 19.2928 33.05C19.2178 35.5216 17.2651 37.5289 14.7885 37.6792C14.7885 37.6792 13.855 37.7358 13.3907 37.7924C13.2195 37.8169 13.0498 37.8505 12.8822 37.8931C12.8583 37.9176 12.8198 37.9176 12.7952 37.8938L12.7945 37.8931C12.7777 37.8715 12.7777 37.8407 12.7945 37.819L12.939 37.0332L13.8157 33.1025C13.9209 32.6117 13.6074 32.1285 13.115 32.0237C12.6227 31.9188 12.138 32.2313 12.0328 32.7221C12.0328 32.7221 9.94759 42.3433 9.94759 42.4307C9.82835 42.8984 10.1117 43.3738 10.5809 43.4927C10.5858 43.4941 10.5915 43.4955 10.5964 43.4962H10.6448C11.1133 43.6172 11.5916 43.3361 11.7123 42.8691C11.7144 42.8614 11.7165 42.8537 11.7179 42.8453C11.7165 42.8306 11.7165 42.8159 11.7179 42.8019C11.7438 42.6887 12.0069 41.4085 12.0069 41.4085C12.206 40.4423 12.9874 39.7019 13.9651 39.5522C14.1664 39.5215 15.0123 39.4648 15.0123 39.4648C18.6651 39.102 21.3311 35.8558 20.9663 32.2145C20.6339 28.8935 17.8739 26.3367 14.5255 26.25Z" fill="#1E1E1E"/>
<path d="M14.9288 41.5358C14.3291 41.4113 13.7428 41.7952 13.6179 42.3922C13.6165 42.3978 13.6158 42.4034 13.6144 42.409C13.4847 43.0026 13.862 43.5892 14.4582 43.7185C14.4589 43.7185 14.4596 43.7185 14.4603 43.7192H14.4911C15.0747 43.8598 15.6618 43.5018 15.802 42.9208C15.8034 42.9166 15.8041 42.9117 15.8055 42.9075V42.8467C15.9086 42.2468 15.5243 41.6714 14.9288 41.5358Z" fill="#E6007A"/>
</g>
<defs>
<clipPath id="clip0">
<rect width="13.125" height="17.5" fill="white" transform="translate(7.875 26.25)"/>
</clipPath>
</defs>
</svg>
