<svg width="47" height="53" viewBox="0 0 47 53" fill="none" xmlns="http://www.w3.org/2000/svg">
    <path fill-rule="evenodd" clip-rule="evenodd"
          d="M22.1588 11.205V13.4594C22.6062 13.4268 23.0615 13.41 23.5232 13.41C23.9849 13.41 24.4402 13.4268 24.8876 13.4594V11.205C24.8876 9.61443 26.2128 8.325 27.8476 8.325C29.4823 8.325 30.8076 9.61443 30.8076 11.205C30.8076 11.3264 30.7998 11.4461 30.7848 11.5636L30.8076 11.565L30.2832 14.7679C33.0979 16.038 34.9238 18.081 34.9238 20.385V22.365C34.9238 26.2172 29.8196 29.34 23.5232 29.34C17.2268 29.34 12.1226 26.2172 12.1226 22.365V20.385C12.1226 18.081 13.9484 16.038 16.7632 14.7679L16.2388 11.565L16.2615 11.5636C16.2465 11.4461 16.2388 11.3264 16.2388 11.205C16.2388 9.61443 17.564 8.325 19.1988 8.325C20.8336 8.325 22.1588 9.61443 22.1588 11.205Z"
          fill="#FACFD8"/>
    <path fill-rule="evenodd" clip-rule="evenodd"
          d="M20.7466 14.9404V11.205C20.7466 10.3733 20.0536 9.69905 19.1988 9.69905C18.344 9.69905 17.651 10.3733 17.651 11.205C17.651 11.2697 17.6551 11.3328 17.663 11.3943L17.7412 12.0073L18.3257 15.5775L17.3573 16.0144C14.7775 17.1785 13.5348 18.8507 13.5348 20.385V22.365C13.5348 23.6504 14.3899 25.0182 16.2135 26.1339C18.0183 27.2381 20.5989 27.966 23.5232 27.966C26.4475 27.966 29.0281 27.2381 30.8329 26.1339C32.6565 25.0182 33.5116 23.6504 33.5116 22.365V20.385C33.5116 18.8507 32.2688 17.1785 29.689 16.0144L28.7206 15.5775L29.3052 12.0071L29.3834 11.3943C29.3912 11.3328 29.3953 11.2697 29.3953 11.205C29.3953 10.3733 28.7024 9.69905 27.8476 9.69905C26.9927 9.69905 26.2998 10.3733 26.2998 11.205V14.9404L24.7819 14.8296C24.3698 14.7996 23.9497 14.7841 23.5232 14.7841C23.0966 14.7841 22.6766 14.7996 22.2644 14.8296L20.7466 14.9404ZM30.2832 14.7679C33.0979 16.038 34.9238 18.081 34.9238 20.385V22.365C34.9238 26.2172 29.8196 29.34 23.5232 29.34C17.2268 29.34 12.1226 26.2172 12.1226 22.365V20.385C12.1226 18.081 13.9484 16.038 16.7632 14.7679L16.2388 11.565L16.2615 11.5636C16.2614 11.5629 16.2614 11.5622 16.2613 11.5615C16.2466 11.4463 16.239 11.329 16.2388 11.21C16.2388 11.2083 16.2388 11.2067 16.2388 11.205C16.2388 9.61443 17.564 8.325 19.1988 8.325C20.8336 8.325 22.1588 9.61443 22.1588 11.205V13.4594C22.5907 13.4279 23.03 13.4112 23.4753 13.4101C23.4913 13.41 23.5072 13.41 23.5232 13.41C23.5391 13.41 23.5551 13.41 23.571 13.4101C24.0164 13.4112 24.4557 13.4279 24.8876 13.4594V11.205C24.8876 9.61443 26.2128 8.325 27.8476 8.325C29.4823 8.325 30.8076 9.61443 30.8076 11.205C30.8076 11.2067 30.8076 11.2083 30.8076 11.21C30.8073 11.329 30.7997 11.4463 30.7851 11.5615C30.785 11.5622 30.7849 11.5629 30.7848 11.5636L30.8076 11.565L30.2832 14.7679Z"
          fill="#EC6998"/>
    <path d="M35.8951 21.285C35.8951 22.2046 34.7562 22.95 33.3514 22.95C31.9465 22.95 30.8076 22.2046 30.8076 21.285C30.8076 20.3654 31.9465 19.62 33.3514 19.62C34.7562 19.62 35.8951 20.3654 35.8951 21.285Z" fill="#EC6998"/>
    <path d="M16.1925 21.285C16.1925 22.2046 15.0536 22.95 13.6487 22.95C12.2439 22.95 11.105 22.2046 11.105 21.285C11.105 20.3654 12.2439 19.62 13.6487 19.62C15.0536 19.62 16.1925 20.3654 16.1925 21.285Z" fill="#EC6998"/>
    <path d="M31.6401 24.12C31.6401 27.0029 28.0164 29.34 23.5464 29.34C19.0763 29.34 15.4526 27.0029 15.4526 24.12C15.4526 21.2371 19.0763 18.9 23.5464 18.9C28.0164 18.9 31.6401 21.2371 31.6401 24.12Z" fill="black"/>
    <mask id="mask0" mask-type="alpha" maskUnits="userSpaceOnUse" x="15" y="18" width="17" height="12">
        <path d="M31.6401 24.12C31.6401 27.0029 28.0164 29.34 23.5464 29.34C19.0763 29.34 15.4526 27.0029 15.4526 24.12C15.4526 21.2371 19.0763 18.9 23.5464 18.9C28.0164 18.9 31.6401 21.2371 31.6401 24.12Z" fill="white"/>
    </mask>
    <g mask="url(#mask0)">
        <path d="M24.1013 18.9225C24.1013 19.432 23.8632 19.845 23.5695 19.845C23.2757 19.845 23.0376 19.432 23.0376 18.9225C23.0376 18.413 23.2757 18 23.5695 18C23.8632 18 24.1013 18.413 24.1013 18.9225Z" fill="white"/>
        <path d="M31.5884 27.4275C31.5884 28.7323 27.9647 29.79 23.4946 29.79C19.0246 29.79 15.4009 28.7323 15.4009 27.4275C15.4009 26.1227 19.0246 25.065 23.4946 25.065C27.9647 25.065 31.5884 26.1227 31.5884 27.4275Z" fill="#EC6998"/>
    </g>
    <path d="M20.7916 17.3238C20.8824 17.497 20.3102 17.9577 19.5136 18.3526C18.7171 18.7475 17.9977 18.9271 17.907 18.7538C17.8162 18.5805 18.3884 18.1199 19.185 17.725C19.9816 17.3301 20.7009 17.1505 20.7916 17.3238Z" fill="black"/>
    <path d="M26.2084 17.3238C26.1176 17.497 26.6898 17.9577 27.4864 18.3526C28.283 18.7475 29.0023 18.9271 29.093 18.7538C29.1838 18.5805 28.6116 18.1199 27.815 17.725C27.0184 17.3301 26.2991 17.1505 26.2084 17.3238Z" fill="black"/>
    <circle cx="31" cy="37" r="16" fill="#F0B90B"/>
    <path d="M31.5003 27.0442L34.0909 29.6893L27.5676 36.193L24.9771 33.6102L31.5003 27.0442Z" fill="white"/>
    <path d="M35.433 30.9651L38.0236 33.6102L27.5676 44.0349L24.9771 41.452L35.433 30.9651Z" fill="white"/>
    <path d="M23.6345 34.886L26.2251 37.5311L23.6345 40.114L21.0439 37.5311L23.6345 34.886Z" fill="white"/>
    <path d="M39.3657 34.886L41.9562 37.5311L31.5003 47.9558L28.9097 45.373L39.3657 34.886Z" fill="white"/>
    <path d="M16 53C24.8667 53 32 45.8667 32 37C32 28.1333 24.8667 21 16 21C7.13328 21 0 28.1333 0 37C0 45.8667 7.13328 53 16 53Z" fill="#2775CA"/>
    <path d="M20.4001 39.5333C20.4001 37.2 19.0001 36.4 16.2001 36.0667C14.2001 35.8 13.8001 35.2667 13.8001 34.3333C13.8001 33.3998 14.4668 32.8 15.8001 32.8C17.0001 32.8 17.6668 33.2 18.0001 34.2C18.0668 34.4 18.2668 34.5333 18.4668 34.5333H19.5334C19.8001 34.5333 20.0001 34.3333 20.0001 34.0667V34C19.7334 32.5333 18.5334 31.4 17.0001 31.2667V29.6667C17.0001 29.4 16.8001 29.2 16.4668 29.1333H15.4668C15.2001 29.1333 15.0001 29.3333 14.9334 29.6667V31.2C12.9334 31.4667 11.6668 32.8 11.6668 34.4667C11.6668 36.6667 13.0001 37.5333 15.8001 37.8667C17.6668 38.2 18.2668 38.6 18.2668 39.6667C18.2668 40.7334 17.3334 41.4667 16.0668 41.4667C14.3334 41.4667 13.7334 40.7333 13.5334 39.7333C13.4668 39.4667 13.2668 39.3333 13.0668 39.3333H11.9334C11.6668 39.3333 11.4668 39.5333 11.4668 39.8V39.8667C11.7334 41.5333 12.8001 42.7333 15.0001 43.0667V44.6667C15.0001 44.9333 15.2001 45.1333 15.5334 45.2H16.5334C16.8001 45.2 17.0001 45 17.0668 44.6667V43.0667C19.0668 42.7333 20.4001 41.3333 20.4001 39.5333V39.5333Z"
          fill="white"/>
    <path fill-rule="evenodd" clip-rule="evenodd"
          d="M6.66656 33.7333C4.73311 38.8667 7.39984 44.6667 12.5998 46.5333C12.7998 46.6667 12.9998 46.9333 12.9998 47.1333V48.0667C12.9998 48.2 12.9998 48.2667 12.9331 48.3333C12.8666 48.6 12.5998 48.7333 12.3331 48.6C8.59984 47.4 5.73312 44.5333 4.53311 40.8C2.53311 34.4667 5.99984 27.7333 12.3331 25.7333C12.3998 25.6667 12.5331 25.6667 12.5998 25.6667C12.8666 25.7333 12.9998 25.9333 12.9998 26.2V27.1333C12.9998 27.4667 12.8666 27.6667 12.5998 27.8C9.86656 28.8 7.66656 30.9333 6.66656 33.7333ZM19.0667 26C19.1333 25.7333 19.4 25.6 19.6667 25.7333C23.3333 26.9333 26.2667 29.8 27.4667 33.6C29.4667 39.9333 26 46.6667 19.6667 48.6667C19.6 48.7333 19.4667 48.7333 19.4 48.7333C19.1333 48.6667 19 48.4667 19 48.2V47.2667C19 46.9333 19.1333 46.7333 19.4 46.6C22.1333 45.6 24.3333 43.4667 25.3333 40.6667C27.2667 35.5333 24.6 29.7333 19.4 27.8667C19.2 27.7333 19 27.4667 19 27.2V26.2667C19 26.1333 19 26.0667 19.0667 26Z"
          fill="white"/>
</svg>
