<?xml version="1.0" encoding="utf-8"?>
<!-- Generator: Adobe Illustrator 25.2.3, SVG Export Plug-In . SVG Version: 6.00 Build 0)  -->
<svg version="1.1" id="Layer_1" xmlns:v="https://vecta.io/nano"
	 xmlns="http://www.w3.org/2000/svg" xmlns:xlink="http://www.w3.org/1999/xlink" x="0px" y="0px" viewBox="0 0 186 171"
	 style="enable-background:new 0 0 186 171;" xml:space="preserve">
<style type="text/css">
	.st0{fill:#FEC803;}
	.st1{fill:#F3BA2F;}
	.st2{opacity:0.1;fill:none;stroke:#191326;stroke-width:3;enable-background:new    ;}
	.st3{fill:#FFFFFF;}
	.st4{fill:#4958C5;}
	.st5{fill:none;stroke:#2E42A3;stroke-width:3;stroke-miterlimit:10;}
</style>
<g>
	<path class="st0" d="M172.4,95c-1-7.8-6.2-14.9-13.3-18.2c-8.6-4-18.7-2.6-27.8-5.3c-11.8-3.5-20.4-13.3-30.9-19.8
		C88,44.1,73.2,41.4,58.8,38.8C49.2,37.1,39.1,35.5,30,39c-12.3,4.9-19.5,20-15.5,32.6c6.8,21.4,37,27.1,46.2,47.6
		c4.8,10.6,3.2,24.1,10.7,32.9c9,10.5,25.5,8.7,38.9,5.5c10.2-2.5,20.3-5.3,30.4-8.2c8.2-2.3,16.8-4.8,22.8-10.8
		c7.5-7.4,4.4-13.1,4.3-21.7C167.9,109.5,173.5,103.3,172.4,95z"/>
</g>
<circle class="st1" cx="70.2" cy="39.8" r="29"/>
<circle class="st2" cx="70.2" cy="39.8" r="27.5"/>
<g>
	<path class="st3" d="M63.9,37.2l6.3-6.3l6.3,6.3l3.7-3.7l-9.9-9.9l-9.9,9.9L63.9,37.2z M54,39.8l3.7-3.7l3.7,3.7l-3.7,3.7L54,39.8z
		 M63.9,42.4l6.3,6.3l6.3-6.3l3.7,3.7l-10,9.9l-9.9-10l0,0L63.9,42.4z M79.1,39.8l3.7-3.7l3.7,3.7l-3.7,3.7L79.1,39.8z M73.9,39.8
		L73.9,39.8L73.9,39.8l-3.7,3.7l-3.7-3.7l0,0l0,0l0.6-0.7l0.3-0.3l2.7-2.7L73.9,39.8L73.9,39.8z"/>
</g>
<path class="st4" d="M161.5,83.7c0,23-18.7,41.7-41.7,41.7c-23,0-41.7-18.7-41.7-41.7S96.8,42,119.8,42
	C142.9,42,161.5,60.7,161.5,83.7z"/>
<path class="st3" d="M136.8,66.5h-11.4v-3.2c0-3.5,3.7-6.2,6.1-6.4c2.1-0.2,3.3-0.5,7.5,0.9V52c-2.9-0.7-6.4-0.6-9.3-0.4
	c-3.2,0.2-10.4,3.5-10.4,11.3v3.5h-4.2v5.3h4.2v19.9c0,0-2.7-2.6-8.3-2.6c-7.8,0-14.6,6-14.6,14.5c0,8.6,6.4,14.7,14.8,14.7
	c8.4,0,14.3-7.2,14.5-14.7c0.2-7.5,0-16,0-16V71.7h11V66.5z"/>
<ellipse class="st4" cx="111.4" cy="103.3" rx="8.6" ry="8.6"/>
<circle class="st5" cx="119.7" cy="83.9" r="42.5"/>
</svg>
