<?xml version="1.0" encoding="utf-8"?>
<!-- Generator: Adobe Illustrator 24.0.2, SVG Export Plug-In . SVG Version: 6.00 Build 0)  -->
<svg version="1.1" id="Layer_1" xmlns:v="https://vecta.io/nano"
	 xmlns="http://www.w3.org/2000/svg" xmlns:xlink="http://www.w3.org/1999/xlink" x="0px" y="0px" viewBox="0 0 186 171"
	 style="enable-background:new 0 0 186 171;" xml:space="preserve">
<style type="text/css">
	.st0{fill:#FEC803;}
	.st1{fill:#F3BA2F;}
	.st2{opacity:0.1;fill:none;stroke:#191326;stroke-width:3;enable-background:new    ;}
	.st3{fill:#FFFFFF;}
	.st4{opacity:0.1;fill:none;stroke:#565656;stroke-width:2.837;enable-background:new    ;}
	.st5{fill:#F88230;}
	.st6{fill:#E18E54;}
	.st7{fill:#E28E53;}
	.st8{fill:#E99664;}
	.st9{fill:#EA9564;}
	.st10{fill:#DEA777;}
	.st11{fill:#DAA373;}
	.st12{fill:#DBA471;}
	.st13{fill:#DBA473;}
	.st14{fill:#FEFEFE;}
	.st15{fill:#010101;}
	.st16{fill:#020202;}
</style>
<g>
	<path class="st0" d="M172.4,95c-1-7.8-6.2-14.9-13.3-18.2c-8.6-4-18.7-2.6-27.8-5.3c-11.8-3.5-20.4-13.3-30.9-19.8
		C88,44.1,73.2,41.4,58.8,38.8C49.2,37.1,39.1,35.5,30,39c-12.3,4.9-19.5,20-15.5,32.6c6.8,21.4,37,27.1,46.2,47.6
		c4.8,10.6,3.2,24.1,10.7,32.9c9,10.5,25.5,8.7,38.9,5.5c10.2-2.5,20.3-5.3,30.4-8.2c8.2-2.3,16.8-4.8,22.8-10.8
		c7.5-7.4,4.4-13.1,4.3-21.7C167.9,109.5,173.5,103.3,172.4,95z"/>
</g>
<circle class="st1" cx="70.2" cy="39.8" r="29"/>
<circle class="st2" cx="70.2" cy="39.8" r="27.5"/>
<g id="Layer_x0020_1">
	<g id="_1421344023328">
		<path class="st3" d="M161.9,93.8c-5.8,23.3-29.4,37.5-52.7,31.7c-23.3-5.8-37.5-29.4-31.7-52.7c5.8-23.3,29.4-37.5,52.7-31.7
			C153.5,46.9,167.7,70.5,161.9,93.8L161.9,93.8L161.9,93.8z"/>
	</g>
</g>
<circle class="st4" cx="119.7" cy="83.3" r="42.1"/>
<g>
	<path class="st3" d="M63.9,37.2l6.3-6.3l6.3,6.3l3.7-3.7l-9.9-9.9l-9.9,9.9L63.9,37.2z M54,39.8l3.7-3.7l3.7,3.7l-3.7,3.7L54,39.8z
		 M63.9,42.4l6.3,6.3l6.3-6.3l3.7,3.7l-10,9.9l-9.9-10l0,0L63.9,42.4z M79.1,39.8l3.7-3.7l3.7,3.7l-3.7,3.7L79.1,39.8z M73.9,39.8
		L73.9,39.8L73.9,39.8l-3.7,3.7l-3.7-3.7l0,0l0,0l0.6-0.7l0.3-0.3l2.7-2.7L73.9,39.8L73.9,39.8z"/>
</g>
<g>
	<path class="st5" d="M85,109.6c-1.6-2-3-4.1-4-6.4c-0.2-0.7-0.5-1.3-0.9-1.8c-1.9-4-3-8.2-3.6-12.5c-0.5-3.9-0.5-7.8,0.1-11.7
		C77.1,73,78.2,69,80,65.3c0.4-0.6,0.7-1.2,0.9-1.8c1.1-2.3,2.4-4.4,4-6.4c0.3-0.4,0.7-0.7,0.9-1.2c1.9-2.4,4-4.6,6.5-6.5
		c0.5-0.2,0.8-0.6,1.2-0.9c0.8-0.7,1.7-1.3,2.6-1.8c0.9-0.3,1.6-0.7,2.3-1.4c2.7-1.8,5.8-3,8.9-3.9c4.2-1.3,8.4-1.9,12.8-1.8
		c6.8,0.1,13.2,1.6,19.2,4.6c5.6,2.9,10.4,6.6,14.4,11.6c0.2,0.5,0.6,0.8,0.9,1.2c4.1,5.4,6.9,11.4,8.1,18.1c0.5,3,0.9,6,0.8,9
		c-0.3,7.7-2.2,14.9-6.3,21.6c-3,5-6.8,9.2-11.6,12.7c-0.7,0.5-1.4,0.9-2.1,1.4c-0.5,0.2-1.1,0.3-1.4,0.8c-2.1,1.4-4.3,2.4-6.6,3.3
		c-6.7,2.5-13.6,3.4-20.7,2.6c-6.5-0.7-12.4-2.8-17.9-6.2c-4.2-2.6-7.9-5.8-11-9.7C85.7,110.3,85.2,110,85,109.6z"/>
	<path class="st6" d="M98.3,45.4c-0.5,0.8-1.1,1.6-2.3,1.4C96.6,46,97.5,45.7,98.3,45.4z"/>
	<path class="st7" d="M142,120.7c-0.1-1.2,0.8-0.8,1.4-0.8C143,120.3,142.6,120.6,142,120.7z"/>
	<path class="st8" d="M80.9,63.5c0.2,0.8-0.3,1.4-0.9,1.8C80.2,64.6,80.5,64,80.9,63.5z"/>
	<path class="st9" d="M80,101.4c0.6,0.4,1,1,0.9,1.8C80.5,102.7,80.2,102,80,101.4z"/>
	<path class="st10" d="M93.4,48.6c-0.2,0.5-0.5,0.9-1.2,0.9C92.6,49.1,92.9,48.6,93.4,48.6z"/>
	<path class="st11" d="M85.8,55.9c0.1,0.7-0.4,0.9-0.9,1.2C85,56.5,85.4,56.2,85.8,55.9z"/>
	<path class="st12" d="M154.4,57.1c-0.5-0.2-0.9-0.5-0.9-1.2C153.9,56.2,154.4,56.5,154.4,57.1z"/>
	<path class="st13" d="M85,109.6c0.5,0.2,0.9,0.5,0.9,1.2C85.4,110.4,85,110.1,85,109.6z"/>
	<path class="st14" d="M157.1,83.1c0.2,20.7-16.9,37.7-37.6,37.7c-20.3,0-38.4-16.7-37.6-39c0.7-19.6,16.5-36.1,37.5-36.3
		C140.1,45.4,157.3,62.4,157.1,83.1z"/>
	<path d="M115.1,56.3c0,2.5,0,4.9,0,7.3c0,4.9,0,9.8-0.1,14.7c0,0.8,0.2,1.1,1,1.1c1.8-0.1,3.6,0,5.3,0.1c0.7,0,0.8-0.2,0.9-0.9
		c0-5.9,0.2-11.8,0.2-17.7c0-1.3,0.5-2.1,1.6-2.6c1-0.5,1.8-1.1,2.9-1.9c0,0.6,0,1,0,1.5c-0.1,16.2-0.3,32.4-0.4,48.6
		c0,0.8-0.3,1.4-0.8,1.8c-0.9,0.7-1.8,1.3-2.8,1.8c-0.7,0.4-0.8,0.2-0.8-0.6c0.1-5.2,0.1-10.3,0.1-15.5c0-3,0-6.1,0-9.1
		c0-0.7-0.2-1-0.9-0.9c-1.8,0-3.6,0-5.3-0.1c-0.8,0-0.9,0.2-0.9,0.9c0,6.9-0.2,13.9-0.2,20.8c0,1.5-0.5,2.5-1.7,3.2
		c-0.8,0.5-1.7,1.4-2.6,1.1c-0.4-0.2-0.1-1.6-0.1-2.5c0.1-15.5,0.3-31,0.4-46.5c0-1.4,0.5-2.3,1.7-2.9
		C113.4,57.5,114.2,56.9,115.1,56.3z"/>
	<path d="M132,81.7c0.8,0.5,1.7,0.9,2.4,1.5c3.1,2.5,3.7,5.9,3.4,9.6c-0.1,1-0.2,2-0.4,3c-0.5,2.7-2.1,4.6-4.6,5.8
		c-1.5,0.7-3,1.1-4.5,1.5c-0.7,0.2-0.9-0.1-0.8-0.7c0-0.1,0-0.1,0-0.2c-0.2-1.9,0-3.4,2.3-4.3c2.3-0.8,3.2-3.1,3.2-5.6
		c0-1.2-0.2-2.3-0.4-3.4c-0.5-2.2-1.8-3.6-4-4.2c-0.7-0.2-1.1-0.5-0.9-1.3c0.1-0.3,0.1-0.7,0-1c-0.2-1.9,0.1-3.3,2-4.5
		c1.7-1.1,2.2-3.1,2-5.1c-0.2-1.8-1.4-2.9-3-3.6c-0.7-0.3-0.9-0.7-0.9-1.4c0.1-1,0.1-1.9,0-2.9c0-0.5,0.2-0.6,0.7-0.5
		c3.8,0.7,7.3,3.3,7.9,8c0.5,4-0.9,7-4.3,9c-0.1,0.1-0.2,0.1-0.2,0.2C132.1,81.6,132.1,81.6,132,81.7z"/>
	<path class="st15" d="M104.8,67.9c-1.2,0-2.4,0-3.7,0c-0.4,0-0.9-0.1-1.3-0.2c-0.9-0.2-1.6-0.7-1.7-1.7c-0.1-1,0.5-1.6,1.3-1.9
		c0.8-0.4,1.7-0.6,2.6-0.6c2.2,0.1,4.4,0.3,6.7,0.4c0.6,0,0.9,0.2,0.8,0.8c-0.1,1,0.3,2.3-0.2,3c-0.5,0.6-1.9,0.1-2.8,0.2
		C105.9,68,105.3,68,104.8,67.9C104.8,68,104.8,68,104.8,67.9z"/>
	<path class="st15" d="M106.3,102.8c-0.6,0-1.3,0.1-1.9,0.1c-1.2,0-2-0.8-2-2.1c0-1.2,0.7-2,1.9-2c1.4,0,2.8,0,4.2,0
		c0.6,0,0.8,0.2,0.8,0.8c-0.1,0.8-0.1,1.7,0,2.6c0,0.6-0.3,0.7-0.8,0.7C107.7,102.7,107,102.7,106.3,102.8
		C106.3,102.7,106.3,102.8,106.3,102.8z"/>
	<path class="st16" d="M118.4,102.8c-2.3,0-2.3,0-2.3-2.3c0-1.7,0-1.7,1.9-1.7c2.6,0,2.6,0,2.6,2.6c0,1.1-0.2,1.6-1.4,1.3
		C119,102.8,118.6,102.8,118.4,102.8z"/>
	<path class="st15" d="M118.8,68.2c-2.3,0-2.3,0-2.3-2.3c0-1.5,0-1.5,1.6-1.6c0.7,0,1.4,0,2.1-0.1c0.7-0.1,0.9,0.2,0.8,0.9
		c0,0.3,0,0.6,0,0.9C121,68.2,121,68.2,118.8,68.2z"/>
</g>
</svg>
