<?xml version="1.0" encoding="utf-8"?>
<!-- Generator: Adobe Illustrator 24.0.2, SVG Export Plug-In . SVG Version: 6.00 Build 0)  -->
<svg version="1.1" id="Layer_1" xmlns:v="https://vecta.io/nano"
	 xmlns="http://www.w3.org/2000/svg" xmlns:xlink="http://www.w3.org/1999/xlink" x="0px" y="0px" viewBox="0 0 186 171"
	 style="enable-background:new 0 0 186 171;" xml:space="preserve">
<style type="text/css">
	.st0{fill:#FEC803;}
	.st1{fill:#F3BA2F;}
	.st2{opacity:0.1;fill:none;stroke:#191326;stroke-width:3;enable-background:new    ;}
	.st3{fill:#F7931A;}
	.st4{fill:#FFFFFF;}
	.st5{opacity:0.1;fill:none;stroke:#565656;stroke-width:2.837;enable-background:new    ;}
</style>
<g>
	<path class="st0" d="M172.4,95c-1-7.8-6.2-14.9-13.3-18.2c-8.6-4-18.7-2.6-27.8-5.3c-11.8-3.5-20.4-13.3-30.9-19.8
		C88,44.1,73.2,41.4,58.8,38.8C49.2,37.1,39.1,35.5,30,39c-12.3,4.9-19.5,20-15.5,32.6c6.8,21.4,37,27.1,46.2,47.6
		c4.8,10.6,3.2,24.1,10.7,32.9c9,10.5,25.5,8.7,38.9,5.5c10.2-2.5,20.3-5.3,30.4-8.2c8.2-2.3,16.8-4.8,22.8-10.8
		c7.5-7.4,4.4-13.1,4.3-21.7C167.9,109.5,173.5,103.3,172.4,95z"/>
</g>
<circle class="st1" cx="70.2" cy="39.8" r="29"/>
<circle class="st2" cx="70.2" cy="39.8" r="27.5"/>
<g id="Layer_x0020_1">
	<g id="_1421344023328">
		<path class="st3" d="M161.9,93.8c-5.8,23.3-29.4,37.5-52.7,31.7c-23.3-5.8-37.5-29.4-31.7-52.7c5.8-23.3,29.4-37.5,52.7-31.7
			C153.5,46.9,167.7,70.5,161.9,93.8L161.9,93.8L161.9,93.8z"/>
		<path class="st4" d="M138.9,77.1c0.9-5.8-3.5-8.9-9.6-11l2-7.8l-4.8-1.2l-1.9,7.6c-1.3-0.3-2.5-0.6-3.8-0.9l1.9-7.7l-4.8-1.2
			l-2,7.8c-1-0.2-2.1-0.5-3-0.7l0,0l-6.6-1.6l-1.3,5.1c0,0,3.5,0.8,3.5,0.9c1.9,0.5,2.3,1.8,2.2,2.8l-2.2,8.9c0.1,0,0.3,0.1,0.5,0.2
			c-0.2,0-0.3-0.1-0.5-0.1l-3.1,12.5c-0.2,0.6-0.8,1.5-2.2,1.1c0,0.1-3.5-0.9-3.5-0.9l-2.4,5.5l6.2,1.5c1.2,0.3,2.3,0.6,3.4,0.9
			l-2,7.9l4.8,1.2l2-7.8c1.3,0.4,2.6,0.7,3.8,1l-1.9,7.8l4.8,1.2l2-7.9c8.1,1.5,14.3,0.9,16.8-6.4c2.1-5.9-0.1-9.3-4.4-11.6
			C135.9,83.4,138.3,81.3,138.9,77.1L138.9,77.1L138.9,77.1z M128,92.4c-1.5,5.9-11.5,2.7-14.7,1.9l2.6-10.5
			C119.1,84.6,129.5,86.2,128,92.4L128,92.4z M129.4,77c-1.3,5.4-9.7,2.7-12.3,2l2.4-9.5C122.2,70.1,130.9,71.4,129.4,77L129.4,77z"
			/>
	</g>
</g>
<circle class="st5" cx="119.7" cy="83.3" r="42.1"/>
<g>
	<path class="st4" d="M63.9,37.2l6.3-6.3l6.3,6.3l3.7-3.7l-9.9-9.9l-9.9,9.9L63.9,37.2z M54,39.8l3.7-3.7l3.7,3.7l-3.7,3.7L54,39.8z
		 M63.9,42.4l6.3,6.3l6.3-6.3l3.7,3.7l-10,9.9l-9.9-10l0,0L63.9,42.4z M79.1,39.8l3.7-3.7l3.7,3.7l-3.7,3.7L79.1,39.8z M73.9,39.8
		L73.9,39.8L73.9,39.8l-3.7,3.7l-3.7-3.7l0,0l0,0l0.6-0.7l0.3-0.3l2.7-2.7L73.9,39.8L73.9,39.8z"/>
</g>
</svg>
