<?xml version="1.0" encoding="utf-8"?>
<!-- Generator: Adobe Illustrator 25.2.1, SVG Export Plug-In . SVG Version: 6.00 Build 0)  -->
<svg version="1.1" id="Layer_1" xmlns:v="https://vecta.io/nano"
	 xmlns="http://www.w3.org/2000/svg" xmlns:xlink="http://www.w3.org/1999/xlink" x="0px" y="0px" viewBox="0 0 186 171"
	 style="enable-background:new 0 0 186 171;" xml:space="preserve">
<style type="text/css">
	.st0{fill:#FEC803;}
	.st1{fill:#F0B90B;}
	.st2{opacity:0.1;fill:none;stroke:#191326;stroke-width:3;enable-background:new    ;}
	.st3{fill:#3ACED9;}
	.st4{opacity:0.4;fill:none;stroke:#565656;stroke-width:2.837;enable-background:new    ;}
	.st5{fill:#FFFFFF;}
	.st6{fill:#606063;}
	.st7{fill:#612F01;}
	.st8{fill:#F4F2F2;}
	.st9{fill:#BDBDBD;}
	.st10{fill:#D0874F;}
	.st11{fill:#823C02;}
	.st12{fill:#FDDB8F;}
	.st13{fill:#EFB80B;}
	.st14{fill:#9D7200;}
	.st15{fill:#964506;}
	.st16{fill:#9E7200;}
</style>
<g>
	<path class="st0" d="M172.4,95c-1-7.8-6.2-14.9-13.3-18.2c-8.6-4-18.7-2.6-27.8-5.3c-11.8-3.5-20.4-13.3-30.9-19.8
		C88,44.1,73.2,41.4,58.8,38.8C49.2,37.1,39.1,35.5,30,39c-12.3,4.9-19.5,20-15.5,32.6c6.8,21.4,37,27.1,46.2,47.6
		c4.8,10.6,3.2,24.1,10.7,32.9c9,10.5,25.5,8.7,38.9,5.5c10.2-2.5,20.3-5.3,30.4-8.2c8.2-2.3,16.8-4.8,22.8-10.8
		c7.5-7.4,4.4-13.1,4.3-21.7C167.9,109.5,173.5,103.3,172.4,95z"/>
</g>
<circle class="st1" cx="70.2" cy="39.8" r="29"/>
<circle class="st2" cx="70.2" cy="39.8" r="27.5"/>
<circle class="st3" cx="119.7" cy="83.3" r="43.5"/>
<circle class="st4" cx="119.7" cy="83.3" r="42.1"/>
<g>
	<path class="st5" d="M63.2,36.8c-0.1-0.1-0.2-0.1-0.2-0.2c-1.2-1.2-2.4-2.4-3.7-3.6c-0.2-0.2-0.2-0.3,0-0.5
		c3.6-3.5,7.1-7.1,10.6-10.6c0.2-0.2,0.3-0.2,0.5,0c3.5,3.5,7.1,7.1,10.6,10.6c0.2,0.2,0.2,0.3,0,0.5c-1.2,1.2-2.4,2.4-3.6,3.6
		c-0.3,0.3-0.4,0.1-0.6-0.1c-2.1-2.1-4.2-4.2-6.3-6.4c-0.3-0.3-0.4-0.3-0.7,0c-2.1,2.1-4.2,4.2-6.3,6.3
		C63.5,36.6,63.3,36.7,63.2,36.8z"/>
	<path class="st5" d="M70.2,57.9c-0.1-0.1-0.1-0.1-0.2-0.2c-3.6-3.5-7.1-7.1-10.7-10.6c-0.2-0.2-0.2-0.3,0-0.5
		c1.2-1.2,2.4-2.4,3.6-3.6c0.3-0.3,0.4-0.1,0.6,0.1c2.1,2.1,4.2,4.2,6.3,6.3c0.3,0.3,0.5,0.3,0.8,0c2.1-2.1,4.2-4.2,6.3-6.3
		c0.3-0.3,0.4-0.3,0.7,0c1.1,1.2,2.3,2.3,3.5,3.5c0.2,0.2,0.2,0.3,0,0.6c-3.5,3.5-7.1,7-10.6,10.6C70.4,57.8,70.4,57.9,70.2,57.9z"
		/>
	<path class="st5" d="M56.2,35.7c0.1,0.1,0.2,0.1,0.2,0.2c1.2,1.2,2.4,2.4,3.6,3.6c0.2,0.2,0.2,0.3,0,0.5c-1.2,1.2-2.4,2.4-3.6,3.6
		c-0.2,0.2-0.3,0.2-0.5,0c-1.2-1.2-2.4-2.4-3.6-3.6c-0.1-0.1-0.3-0.2,0-0.5c1.2-1.2,2.5-2.5,3.7-3.7C56,35.8,56.1,35.8,56.2,35.7z"
		/>
	<path class="st5" d="M84.3,43.9c-0.1-0.1-0.2-0.1-0.2-0.2c-1.2-1.2-2.4-2.4-3.6-3.6c-0.2-0.2-0.2-0.3,0-0.5
		c1.2-1.2,2.4-2.4,3.6-3.6c0.2-0.2,0.3-0.2,0.5,0c1.2,1.2,2.4,2.4,3.6,3.6c0.2,0.2,0.2,0.3,0,0.5c-1.2,1.2-2.4,2.4-3.6,3.6
		C84.5,43.7,84.4,43.8,84.3,43.9z"/>
	<path class="st5" d="M70.2,35.7c0.2,0,0.2,0.1,0.3,0.2c1.2,1.2,2.4,2.4,3.6,3.6c0.2,0.2,0.2,0.3,0,0.5c-1.2,1.2-2.4,2.4-3.6,3.6
		c-0.2,0.2-0.3,0.2-0.5,0c-1.2-1.2-2.4-2.4-3.6-3.6c-0.2-0.2-0.2-0.3,0-0.5c1.2-1.2,2.4-2.4,3.6-3.6C70.1,35.9,70.1,35.8,70.2,35.7z
		"/>
</g>
<g>
	<path class="st6" d="M148.1,94.4c-0.9,3.2-2.8,5.8-5.3,8c-5.3,4.3-11.5,6.3-18.2,7.1c-7.5,0.8-14.7-0.1-21.6-3.1
		c-2.4-1-4.5-2.4-6.5-4c-1.4-1.3-2.8-2.7-3.7-4.4c-1.2-2-1.9-4.2-1.8-6.6c0-0.9,0-1.8,0-2.7c0.1-4.2,2.1-7.4,5-10.2
		c0.6,0,0.8,0.6,0.6,1c-0.4,1.3-0.8,2.5-1.2,3.8c-0.9,0.8-1.1,2-1.5,3c-0.5,1.4-0.3,2.8-0.3,4.2c-0.4,2.4,0.4,4.5,1.6,6.5
		c1.7,2.6,4,4.6,6.7,6.1c3.9,2.1,8.1,3.3,12.6,3.9c2.6,0.3,5.3,0.4,7.9,0.2c4.9-0.3,9.6-1.3,14-3.5c3.2-1.6,6-3.7,7.9-6.7
		c1.2-2,1.9-4.1,1.6-6.5c0.2-2.4-0.2-4.6-1.3-6.8c0.3-2,0.1-4,0.2-5.9c0-0.3,0-0.6,0.4-0.8c0.3,0.9,0.1,1.7,0.1,2.6
		c0,0.6,0.1,1.1,0.5,1.5c1.8,2.4,2.8,5.2,2.7,8.3C148.4,91,148.5,92.7,148.1,94.4z"/>
	<path class="st7" d="M145.1,76.8c0,1.1-0.1,2.3,0,3.4c0,1.2,0,2.3-0.3,3.4c0.2,0.6,0,1-0.2,1.5c-1.1,2.3-2.7,4-4.7,5.5
		c-0.7,0.5-1.2,1.1-1.6,1.8c-2,3.4-5,5.6-8.6,7.2c-3.2,1.4-6.6,2.1-10.1,2.3c-5,0.4-9.8-0.3-14.4-2.2c-3.4-1.3-6.3-3.3-8.4-6.3
		c-1.2-1.7-1.9-3.7-1.9-5.8c0-1.1,0-2.2,0-3.3c0-0.5,0-0.9,0.4-1.3c0.2-1.2,0.6-2.4,1.1-3.5c0.2-0.4-0.1-0.7-0.3-1.1
		c-1.2-3.7-1.3-7.4,0-11.1c0.5-1.4,1.5-2.6,2.4-3.7c6-5.6,13.3-7,21.2-6.6c1.2,0.1,2.5,0.3,3.7,0.4c2.1,0.5,4.3,1,6.3,1.9
		c3.4,1.5,6.4,3.6,8.3,6.9c0.5,0.8,1,1.4,1.8,2c2.5,1.8,4.4,4,5.2,7.1c0.1,0.4,0.2,0.9,0.3,1.3C145.1,76.6,145.1,76.7,145.1,76.8z"
		/>
	<path class="st8" d="M95.1,83c0,2.4-0.4,4.9,0.4,7.3c1.1,3.4,3.5,5.7,6.4,7.5c3.6,2.2,7.5,3.3,11.7,3.7c5.3,0.5,10.5,0,15.4-2
		c3.5-1.4,6.7-3.5,8.7-6.8c0.6-1,1.3-1.8,2.2-2.5c2.3-1.7,4-3.8,4.9-6.5c0.9,1.2,1.3,2.6,1.4,4.1c0.1,0.9,0,1.7,0,2.6
		c-0.2,3.6-2.3,6.1-5,8.2c-4.1,3.3-8.9,5-14,6c-3.1,0.6-6.3,0.8-9.5,0.6c-5.1-0.3-10.1-1.2-14.7-3.5c-3.6-1.8-6.8-4.1-8.8-7.7
		c-0.6-1.1-0.9-2.4-1-3.6c-0.2-2.5,0.2-4.8,1.4-7C94.8,83.2,94.8,83.2,95.1,83z"/>
	<path class="st9" d="M93.2,90.4c0.4,1.9,1.2,3.7,2.4,5.2c2.1,2.7,4.8,4.5,7.9,6c4.2,2,8.6,2.9,13.2,3.2c7.3,0.5,14.2-0.6,20.7-4
		c3-1.6,5.5-3.7,7.3-6.6c0.7-1.2,1.1-2.5,1.4-3.8c0.3,4.1-1.5,7.3-4.4,10c-3.4,3.1-7.4,4.9-11.8,5.9c-8.9,2.1-17.6,1.7-26-1.9
		c-3.6-1.5-6.8-3.7-9-7C93.6,95.2,93,92.9,93.2,90.4z"/>
	<path class="st10" d="M110.1,82.6c0.4-1.2,1.1-1.6,2.4-1.5c3.7,0.3,7.3-0.3,10.5-2.1c2.1-1.2,3.7-2.8,4.5-5.1
		c0.9-2.9-0.3-5.9-3.1-8.1c-1.9-1.4-4-2.2-6.3-2.7c-0.7-0.1-1.3-0.3-2-0.6c-3.1-1.4-6.1-1.3-9.2,0.1c-0.9,0.4-1.7,1.1-2.2,1.9
		c-0.4,0.6-0.8,1-1.4,1.4c-4.1,3.2-4.4,8-0.6,11.6c0.7,0.6,0.8,1,0.3,1.7c-0.1,0.2-0.2,0.3-0.3,0.5c-0.2,0-0.4-0.1-0.6-0.2
		c-1.7-1.2-3.2-2.6-4.2-4.6c-0.3-0.5-0.3-1.1-0.4-1.5c0,0.6,0.6,1.3-0.1,1.9c-0.5-5.2-0.3-8.4,4.6-12c3.3-2.4,7.1-3.6,11.1-4.1
		c4.9-0.6,9.8-0.2,14.4,1.5c1.7,0.7,3.4,1.5,4.9,2.6c3.1,2.3,4.9,5.2,4.7,9.1c0,0.7,0.1,1.4-0.1,2.1c-0.5-0.3-0.1-0.8-0.2-1
		c-0.3,2-1.6,3.5-3.2,4.9c-3.5,2.9-7.7,4.4-12.2,4.9c-1.8,0.2-3.6,0.4-5.4,0.3c-1.6-0.1-3.3-0.2-4.9-0.6
		C110.8,83,110.3,83,110.1,82.6z"/>
	<path class="st11" d="M125.1,69.5c1.1,1.6,1,3.3,0,5c-1.1,1.9-2.9,3-4.9,3.8c-2.1,0.8-4.3,1.1-6.5,1.2c-1.1,0-2.2-0.2-3.2-0.3
		c-0.5-0.1-0.7,0.1-0.9,0.5c-0.3,0.6-0.6,1.1-1,1.7c-0.5,0.7-0.7,1.5-0.7,2.4c0.1,1.6,0,3.2,0,4.8c0,1.2-0.7,1.9-1.9,1.9
		c-1.1,0-1.8-0.7-1.8-1.9c0-2.4,0-4.7,0-7.1c0-1,0.6-1.7,1.1-2.5c0.6-1.1,0.7-1.1-0.3-1.8c-1.4-1-2.6-2.1-3-3.9
		c-0.4-1.7,0.2-3.8,1.6-4.8c0.1,1,0.2,2,0.8,2.9c1,1.5,2.4,2.4,4.1,2.9c2,0.6,4,0.6,6,0c2.3-0.7,4.1-2,4.9-4.4
		c0.3-0.2,0.7-0.2,1.1-0.2C122.1,69.6,123.6,69.7,125.1,69.5z"/>
	<path class="st10" d="M114,88.5c3.5,0.3,7,0.1,10.5-0.7c4.2-1,8-2.6,11.2-5.6c2.4-2.4,3.8-5.2,3.6-8.7c0-0.9,0-1.8,0-2.9
		c2.7,2.3,4.1,5,3.8,8.5c-0.3,3.5-2.7,5.6-5.4,7.4c-3.6,2.4-7.7,3.4-12,3.7c-3.7,0.3-7.3-0.1-10.8-1C114.4,89,114,89,114,88.5z"/>
	<path class="st12" d="M126.1,95.1c2.8-0.3,5.6-0.8,8.2-1.8c-0.5,0.8-1.2,1.3-2,1.9c-3.4,2.4-7.2,3.6-11.2,4.1
		c-5.3,0.6-10.5,0.1-15.5-2c-2.6-1.1-4.9-2.6-6.7-4.9c-0.9-1.2-1.5-2.4-1.7-3.9c-0.1-0.8,0-1.6-0.1-2.4c0.4,0,0.6,0.3,0.7,0.5
		c1.5,3.8,4.5,5.8,8,7.4c2.8,1.2,5.9,1.8,9,2.1c3,0.3,5.8-0.2,8.7-0.5C124.4,95.4,125.3,95.2,126.1,95.1z"/>
	<path class="st12" d="M114,88.5c1.9,0.7,3.8,1,5.8,1.2c4.8,0.5,9.4,0,13.9-1.7c3-1.2,5.7-2.8,7.7-5.5c0.8-1,1.2-2.3,1.6-3.4
		c0.5,5.2-2.4,8.4-6.6,10.8c-4.3,2.4-9,3.2-13.8,3.1c-4.2-0.1-8.2-0.8-11.9-2.7c-0.3-0.1-0.8-0.2-0.8-0.5c-0.1-0.6,0.1-1.2,0.2-1.7
		c0.1-0.3,0.3-0.1,0.5,0C111.6,88.1,112.8,88.3,114,88.5z"/>
	<path class="st12" d="M110.1,82.6c6.8,1.4,13.4,1,19.7-2.1c2.7-1.3,5-3.1,6.4-6c0.2-0.5,0.4-1.1,0.7-1.7c0,0.7,0.1,1.2,0.1,1.8
		c-0.1,2.6-1.3,4.6-3.1,6.2c-2.8,2.7-6.3,4.1-10,4.9c-4.4,0.9-8.7,0.9-13.1,0.1c-0.6-0.1-0.8-0.3-0.7-0.9
		C110.1,84.1,109.8,83.3,110.1,82.6z"/>
	<path class="st10" d="M126.1,95.1c-1.8,0.7-3.8,1-5.7,1.2c-4.4,0.5-8.8,0-13-1.4c-3-1-5.7-2.5-7.9-5c-0.9-1.1-1.5-2.3-2.2-3.6
		c0,0.7,0,1.5,0,2.2c-0.3-0.6-0.2-1.3-0.1-1.9c0-1.5-0.1-3,0.3-4.4c0.2-0.8,0.3-0.8,0.8-0.2c0.9,0.9,1.9,1.8,3,2.5
		c0.7,0.5,1,1.2,1.1,2c0,0.7,0,1.3,0,2c0,2.8,2.8,4.6,5.3,3.4c0.5-0.2,0.8-0.2,1.3,0.1c3.4,1.9,7.2,2.7,11,3.1
		C122.1,95.2,124.1,95.2,126.1,95.1z"/>
	<path class="st13" d="M105.7,67.7c-0.2-1.4,0.6-2.4,1.7-3.1c2.3-1.6,6.3-1.6,8.6,0c1.2,0.8,1.9,1.9,1.6,3.4c-0.1,1-0.7,1.7-1.6,2.2
		c-2.8,1.6-5.7,1.6-8.6,0.1C106.4,69.8,105.7,69,105.7,67.7z"/>
	<path class="st14" d="M105.7,67.7c0.5,1.5,1.7,2.3,3.1,2.9c1.8,0.6,3.6,0.6,5.4,0.1c1.5-0.4,2.7-1.3,3.4-2.7
		c0.3,2.1-0.7,3.2-2.3,3.9c-2.3,1-4.6,1.1-6.9,0.1C106.3,71.1,105.4,69.9,105.7,67.7z"/>
	<path class="st15" d="M125.1,69.5c-0.1,0.2-0.2,0.5-0.6,0.5c-1.6,0-3.2,0-4.7,0c-0.1,0-0.2-0.1-0.3-0.1c-0.1-1.4,0.2-2.9-0.4-4.4
		C121.8,66,123.7,67.4,125.1,69.5z"/>
	<path class="st12" d="M97.3,75.4c0-0.7,0-1.5,0-2.2c0.8,2.1,2,3.7,3.6,5.1c0.5,0.5,1.3,0.8,1.7,1.4c-0.4,0.8-0.1,1.7-0.2,2.7
		C99.8,80.7,97.8,78.6,97.3,75.4z"/>
	<path class="st16" d="M111.7,68.9c-1-0.3-1.7-0.8-2.5-1.5c-0.2-0.2-0.1-0.5,0.1-0.6c0.2-0.2,0.4-0.3,0.6-0.4
		c1.8-1.2,2.3-1.1,3.9,0.3c0.3,0.2,0.5,0.6,0.2,0.8C113.4,68.1,112.6,68.6,111.7,68.9z"/>
</g>
</svg>
