<?xml version="1.0" encoding="utf-8"?>
<!-- Generator: Adobe Illustrator 24.0.2, SVG Export Plug-In . SVG Version: 6.00 Build 0)  -->
<svg version="1.1" id="Layer_1" xmlns:v="https://vecta.io/nano"
	 xmlns="http://www.w3.org/2000/svg" xmlns:xlink="http://www.w3.org/1999/xlink" x="0px" y="0px" viewBox="0 0 186 171"
	 style="enable-background:new 0 0 186 171;" xml:space="preserve">
<style type="text/css">
	.st0{fill:#FEC803;}
	.st1{fill:#EFB80B;}
	.st2{fill:#FFFFFF;}
	.st3{opacity:0.1;fill:none;stroke:#191326;stroke-width:3;enable-background:new    ;}
	.st4{fill:#F5AC37;}
	.st5{fill:#FEFEFD;}
	.st6{opacity:0.1;fill:none;stroke:#161616;stroke-width:2.837;enable-background:new    ;}
</style>
<g>
	<path class="st0" d="M172.4,95c-1-7.8-6.2-14.9-13.3-18.2c-8.6-4-18.7-2.6-27.8-5.3c-11.8-3.5-20.4-13.3-30.9-19.8
		C88,44.1,73.2,41.4,58.8,38.8C49.2,37.1,39.1,35.5,30,39c-12.3,4.9-19.5,20-15.5,32.6c6.8,21.4,37,27.1,46.2,47.6
		c4.8,10.6,3.2,24.1,10.7,32.9c9,10.5,25.5,8.7,38.9,5.5c10.2-2.5,20.3-5.3,30.4-8.2c8.2-2.3,16.8-4.8,22.8-10.8
		c7.5-7.4,4.4-13.1,4.3-21.7C167.9,109.5,173.5,103.3,172.4,95z"/>
</g>
<circle class="st1" cx="70.2" cy="39.8" r="29"/>
<g>
	<path class="st2" d="M70.2,20.3c1.6,1.6,3.2,3.3,4.8,4.9c0.1,0.1,0.1,0.1,0,0.2c-4,4-8,8-12,12c-0.1,0.1-0.1,0.1-0.2,0
		c-1.6-1.6-3.2-3.2-4.7-4.7c-0.1-0.1-0.1-0.1,0-0.1c2-2,3.9-3.9,5.9-5.9c2-2.1,4.1-4.1,6.1-6.2C70.1,20.4,70.2,20.3,70.2,20.3
		L70.2,20.3z"/>
	<path class="st2" d="M63,52.1C62.9,52.1,62.9,52.1,63,52.1C62.9,52,62.9,52,63,52.1c-1.7-1.7-3.3-3.2-4.8-4.8
		c-0.1-0.1-0.1-0.1,0-0.2c2.1-2.2,4.3-4.3,6.4-6.5c2.2-2.2,4.4-4.4,6.6-6.7c2.1-2.1,4.2-4.2,6.3-6.3c0.1-0.1,0.1-0.1,0.2,0
		c1.6,1.6,3.1,3.2,4.7,4.8c0.1,0.1,0.1,0.1,0,0.2C75.9,39.1,69.5,45.6,63,52.1C63,52,63,52.1,63,52.1z"/>
	<path class="st2" d="M89.7,39.9L89.7,39.9C89.6,40,89.6,40,89.7,39.9c-6.5,6.5-12.9,12.9-19.4,19.4c-0.1,0.1-0.1,0.1-0.2,0
		c-1.6-1.6-3.2-3.2-4.7-4.7c-0.1-0.1-0.1-0.1,0-0.1c1.1-1.1,2.3-2.3,3.4-3.4c2.2-2.2,4.4-4.4,6.6-6.7c2.2-2.2,4.3-4.3,6.5-6.5
		c0.9-0.9,1.9-1.9,2.8-2.8c0.1-0.1,0.1-0.1,0.2,0C86.5,36.7,88,38.3,89.7,39.9C89.6,39.8,89.7,39.8,89.7,39.9z"/>
	<path class="st2" d="M55.6,44.8C55.6,44.8,55.6,44.7,55.6,44.8c-0.3-0.3-0.5-0.5-0.7-0.7c-1.4-1.4-2.8-2.8-4.2-4.2
		c-0.1-0.1-0.1-0.1,0-0.1c1.6-1.6,3.2-3.3,4.8-4.9c0.1-0.1,0.1,0,0.1,0c0.8,0.8,1.6,1.6,2.3,2.4c0.8,0.8,1.6,1.7,2.4,2.5
		c0.1,0.1,0.1,0.1,0,0.2C58.9,41.5,57.3,43.1,55.6,44.8C55.7,44.7,55.7,44.8,55.6,44.8z"/>
</g>
<circle class="st3" cx="70.2" cy="39.8" r="27.5"/>
<g id="Layer_x0020_1">
	<path class="st4" d="M119.7,39.6c24.1,0,43.7,19.6,43.7,43.7c0,24.1-19.5,43.7-43.7,43.7C95.6,127,76,107.4,76,83.3
		C76,59.2,95.6,39.6,119.7,39.6z"/>
	<path class="st5" d="M121.3,86.4h16.6c0.4,0,0.5,0,0.5-0.5c0.1-1.7,0.1-3.4,0-5.1c0-0.3-0.2-0.5-0.5-0.5h-33
		c-0.4,0-0.5,0.1-0.5,0.5v4.9c0,0.6,0,0.6,0.7,0.6H121.3L121.3,86.4z M136.6,74.7c0-0.1,0-0.3,0-0.4c-0.3-0.6-0.6-1.2-1-1.7
		c-0.6-0.9-1.2-1.8-2-2.5c-0.4-0.5-0.8-0.9-1.3-1.2c-2.4-2-5.2-3.4-8.2-4.1c-1.5-0.3-3.1-0.5-4.6-0.5h-14.7c-0.4,0-0.5,0.2-0.5,0.5
		v9.7c0,0.4,0,0.5,0.5,0.5h31.5c0,0,0.3-0.1,0.3-0.2H136.6L136.6,74.7z M136.6,92.1c-0.5-0.1-0.9-0.1-1.4,0h-30.3
		c-0.4,0-0.5,0-0.5,0.5v9.5c0,0.4,0,0.5,0.5,0.5h14c0.7,0.1,1.3,0,2-0.1c2-0.1,4-0.6,5.9-1.3c0.7-0.2,1.4-0.6,2-0.9h0.2
		c3.3-1.7,5.9-4.4,7.6-7.7C136.6,92.6,136.8,92.2,136.6,92.1L136.6,92.1z M98.9,107.5v-0.2V101v-2.2v-6.4c0-0.4,0-0.4-0.4-0.4h-5.9
		c-0.3,0-0.5,0-0.5-0.4v-5.2h6.3c0.4,0,0.5,0,0.5-0.5v-5.1c0-0.3,0-0.4-0.4-0.4h-5.9c-0.3,0-0.5,0-0.5-0.4v-4.8c0-0.3,0-0.4,0.4-0.4
		h5.9c0.4,0,0.5,0,0.5-0.5V59.6c0-0.4,0-0.5,0.5-0.5h20.5c1.5,0.1,3,0.2,4.4,0.5c3,0.6,5.9,1.6,8.5,3.2c1.8,1,3.4,2.3,4.8,3.7
		c1.1,1.1,2.1,2.3,2.9,3.6c0.9,1.3,1.6,2.7,2.1,4.2c0.1,0.4,0.4,0.6,0.8,0.6h4.9c0.6,0,0.6,0,0.7,0.6v4.5c0,0.4-0.2,0.5-0.6,0.5
		h-3.8c-0.4,0-0.5,0-0.5,0.5c0.1,1.7,0.1,3.3,0,5c0,0.5,0,0.5,0.5,0.5h4.3c0.2,0.2,0,0.5,0,0.7c0,0.3,0,0.6,0,1v3.3
		c0,0.5-0.1,0.6-0.5,0.6h-5.2c-0.4-0.1-0.7,0.2-0.8,0.5c-1.2,3.2-3.2,6.1-5.7,8.4c-0.9,0.8-1.9,1.6-2.9,2.3
		c-1.1,0.6-2.2,1.3-3.3,1.8c-2.1,0.9-4.2,1.6-6.4,2c-2.1,0.4-4.2,0.5-6.4,0.5L98.9,107.5L98.9,107.5L98.9,107.5z"/>
</g>
<circle class="st6" cx="119.7" cy="83.3" r="42.1"/>
</svg>
