<?xml version="1.0" encoding="utf-8"?>
<!-- Generator: Adobe Illustrator 24.0.2, SVG Export Plug-In . SVG Version: 6.00 Build 0)  -->
<svg version="1.1" id="Layer_1" xmlns:v="https://vecta.io/nano"
	 xmlns="http://www.w3.org/2000/svg" xmlns:xlink="http://www.w3.org/1999/xlink" x="0px" y="0px" viewBox="0 0 186 171"
	 style="enable-background:new 0 0 186 171;" xml:space="preserve">
<style type="text/css">
	.st0{fill:#FEC803;}
	.st1{fill:#F3BA2F;}
	.st2{opacity:0.1;fill:none;stroke:#191326;stroke-width:3;enable-background:new    ;}
	.st3{fill:#272727;}
	.st4{opacity:0.1;fill:none;stroke:#565656;stroke-width:2.837;enable-background:new    ;}
	.st5{fill:#FFFFFF;}
	.st6{fill:none;stroke:#FEC803;stroke-width:1.5;stroke-miterlimit:10;}
</style>
<g>
	<path class="st0" d="M172.4,95c-1-7.8-6.2-14.9-13.3-18.2c-8.6-4-18.7-2.6-27.8-5.3c-11.8-3.5-20.4-13.3-30.9-19.8
		C88,44.1,73.2,41.4,58.8,38.8C49.2,37.1,39.1,35.5,30,39c-12.3,4.9-19.5,20-15.5,32.6c6.8,21.4,37,27.1,46.2,47.6
		c4.8,10.6,3.2,24.1,10.7,32.9c9,10.5,25.5,8.7,38.9,5.5c10.2-2.5,20.3-5.3,30.4-8.2c8.2-2.3,16.8-4.8,22.8-10.8
		c7.5-7.4,4.4-13.1,4.3-21.7C167.9,109.5,173.5,103.3,172.4,95z"/>
</g>
<circle class="st1" cx="70.2" cy="39.8" r="29"/>
<circle class="st2" cx="70.2" cy="39.8" r="27.5"/>
<circle class="st3" cx="119.7" cy="83.3" r="43.5"/>
<circle class="st4" cx="119.7" cy="83.3" r="42.1"/>
<g>
	<path class="st5" d="M63.9,37.2l6.3-6.3l6.3,6.3l3.7-3.7l-9.9-9.9l-9.9,9.9L63.9,37.2z M54,39.8l3.7-3.7l3.7,3.7l-3.7,3.7L54,39.8z
		 M63.9,42.4l6.3,6.3l6.3-6.3l3.7,3.7l-10,9.9l-9.9-10l0,0L63.9,42.4z M79.1,39.8l3.7-3.7l3.7,3.7l-3.7,3.7L79.1,39.8z M73.9,39.8
		L73.9,39.8L73.9,39.8l-3.7,3.7l-3.7-3.7l0,0l0,0l0.6-0.7l0.3-0.3l2.7-2.7L73.9,39.8L73.9,39.8z"/>
</g>
<path class="st6" d="M113.8,82.6c-1-0.5-1.9-1.2-2.7-1.9c-2.5-2.3-4-5.5-4-9.2c0-7,5.8-12.6,12.9-12.6s12.9,5.6,12.9,12.6
	c0,3.7-1.6,6.9-4.1,9.2c-0.8,0.7-1.7,1.3-2.7,1.9 M113.8,82.6v-4.4 M113.8,82.6c0,0,1.4,3.9,6.2,3.9 M113.8,82.6l-0.9,0.9l-2.5,2.4
	c-0.4,0.2-0.7,0.4-1.2,0.6 M126.3,82.6v-4.4 M126.3,82.6c0,0-1.4,3.9-6.2,3.9 M126.3,82.6l0.7,0.6l2.8,2.7c0.3,0.1,0.5,0.3,0.9,0.4
	 M113.8,78.2c-1.1-0.2-2.1-0.4-2.9-0.7l-0.6-8.4l9.8-1l9.5,1l-0.4,8.4c-0.8,0.3-1.8,0.5-2.9,0.7 M113.8,78.2
	c2.9,0.4,6.2-0.1,6.2-3.7c0,3.7,3.3,4.2,6.2,3.7 M120,86.5v-2.7 M120,86.5v7.1h10.5 M106,105c-2.6,0.1-7.7-0.4-7.7-3.7
	c0-7.1,6.7-12.6,10.9-14.9 M106,105v-7.8 M106,105c0.1,0.4,1,1.1,3.2,1.6 M133.9,105c2.4,0,7.1-0.6,7.1-3.7
	c0-7.9-6.6-13.1-10.6-15.1 M133.9,105v-7.8 M133.9,105c-0.2,0.4-1.2,1.1-3.5,1.6 M130.4,106.7c-1,0.3-2.1,0.4-3.6,0.6
	c-1.9,0.2-4.1,0.4-6.9,0.4c-2.9,0-5.3-0.1-7.1-0.4c-1.5-0.2-2.7-0.4-3.7-0.6 M130.4,106.7v-5.9v-3.6V86.3 M109.2,106.7v-5.9v-3.6
	V86.5"/>
</svg>
