<?xml version="1.0" encoding="utf-8"?>
<!-- Generator: Adobe Illustrator 25.2.3, SVG Export Plug-In . SVG Version: 6.00 Build 0)  -->
<svg version="1.1" id="Layer_1" xmlns:v="https://vecta.io/nano"
	 xmlns="http://www.w3.org/2000/svg" xmlns:xlink="http://www.w3.org/1999/xlink" x="0px" y="0px" viewBox="0 0 186 171"
	 style="enable-background:new 0 0 186 171;" xml:space="preserve">
<style type="text/css">
	.st0{fill:#FEC803;}
	.st1{fill:#2775CA;}
	.st2{opacity:0.1;fill:none;stroke:#191326;stroke-width:3;enable-background:new    ;}
	.st3{fill:#FFFFFF;}
	.st4{fill:#F3BA2F;}
	.st5{opacity:0.1;fill:none;stroke:#565656;stroke-width:2.837;enable-background:new    ;}
</style>
<g>
	<path class="st0" d="M172.4,95c-1-7.8-6.2-14.9-13.3-18.2c-8.6-4-18.7-2.6-27.8-5.3c-11.8-3.5-20.4-13.3-30.9-19.8
		C88,44.1,73.2,41.4,58.8,38.8C49.2,37.1,39.1,35.5,30,39c-12.3,4.9-19.5,20-15.5,32.6c6.8,21.4,37,27.1,46.2,47.6
		c4.8,10.6,3.2,24.1,10.7,32.9c9,10.5,25.5,8.7,38.9,5.5c10.2-2.5,20.3-5.3,30.4-8.2c8.2-2.3,16.8-4.8,22.8-10.8
		c7.5-7.4,4.4-13.1,4.3-21.7C167.9,109.5,173.5,103.3,172.4,95z"/>
</g>
<g>
	<circle class="st1" cx="70.2" cy="39.8" r="29"/>
	<circle class="st2" cx="70.2" cy="39.8" r="27.5"/>
	<g>
		<path class="st3" d="M78.2,44.4c0-4.2-2.5-5.7-7.6-6.3c-3.6-0.5-4.4-1.4-4.4-3.1s1.2-2.8,3.6-2.8c2.2,0,3.4,0.7,4,2.5
			c0.1,0.4,0.5,0.6,0.8,0.6h1.9c0.5,0,0.8-0.4,0.8-0.8v-0.1c-0.5-2.7-2.7-4.7-5.4-5v-2.9c0-0.5-0.4-0.8-1-1h-1.8c-0.5,0-0.8,0.4-1,1
			v2.8c-3.6,0.5-5.9,2.9-5.9,5.9c0,4,2.4,5.6,7.5,6.2c3.4,0.6,4.5,1.3,4.5,3.3s-1.7,3.3-4,3.3c-3.1,0-4.2-1.3-4.6-3.1
			c-0.1-0.5-0.5-0.7-0.8-0.7h-2.1c-0.5,0-0.8,0.4-0.8,0.8V45c0.5,3,2.4,5.2,6.4,5.8v2.9c0,0.5,0.4,0.8,1,1h1.8c0.5,0,0.8-0.4,1-1
			v-2.9C75.8,50.2,78.2,47.7,78.2,44.4L78.2,44.4z"/>
		<path class="st3" d="M64,57.1c-9.4-3.4-14.3-13.9-10.8-23.2c1.8-5.1,5.8-8.9,10.8-10.8c0.5-0.2,0.7-0.6,0.7-1.2v-1.7
			c0-0.5-0.2-0.8-0.7-1c-0.1,0-0.4,0-0.5,0.1C52.1,23,45.8,35.2,49.4,46.7c2.2,6.8,7.4,12,14.1,14.1c0.5,0.2,1,0,1.1-0.5
			c0.1-0.1,0.1-0.2,0.1-0.5v-1.7C64.8,57.8,64.4,57.3,64,57.1z M76.8,19.4c-0.5-0.2-1,0-1.1,0.5c-0.1,0.1-0.1,0.2-0.1,0.5V22
			c0,0.5,0.4,1,0.7,1.2c9.4,3.4,14.3,13.9,10.8,23.2c-1.8,5.1-5.8,8.9-10.8,10.8c-0.5,0.2-0.7,0.6-0.7,1.2v1.7c0,0.5,0.2,0.8,0.7,1
			c0.1,0,0.4,0,0.5-0.1C88.3,57.3,94.6,45.1,91,33.6C88.8,26.7,83.5,21.6,76.8,19.4L76.8,19.4z"/>
	</g>
</g>
<g>
	<g>
		<circle class="st4" cx="119.7" cy="83.3" r="43.6"/>
		<g>
			<path class="st3" d="M110.2,79.4l9.5-9.5l9.5,9.5l5.6-5.6l-14.9-14.9L105,73.8L110.2,79.4z M95.3,83.3l5.6-5.6l5.6,5.6l-5.6,5.6
				L95.3,83.3z M110.2,87.2l9.5,9.5l9.5-9.5l5.6,5.6l-15,14.9l-14.9-15l0,0L110.2,87.2z M133.1,83.3l5.6-5.6l5.6,5.6l-5.6,5.6
				L133.1,83.3z M125.3,83.3L125.3,83.3L125.3,83.3l-5.6,5.6l-5.6-5.6l0,0l0,0l0.9-1.1l0.5-0.5l4.1-4.1L125.3,83.3L125.3,83.3z"/>
		</g>
	</g>
	<circle class="st5" cx="119.7" cy="83.3" r="42.1"/>
</g>
</svg>
