<?xml version="1.0" encoding="utf-8"?>
<!-- Generator: Adobe Illustrator 25.2.3, SVG Export Plug-In . SVG Version: 6.00 Build 0)  -->
<svg version="1.1" id="Layer_1" xmlns:v="https://vecta.io/nano"
	 xmlns="http://www.w3.org/2000/svg" xmlns:xlink="http://www.w3.org/1999/xlink" x="0px" y="0px" viewBox="0 0 186 171"
	 style="enable-background:new 0 0 186 171;" xml:space="preserve">
<style type="text/css">
	.st0{fill:#FEC803;}
	.st1{fill:#F3BA2F;}
	.st2{opacity:0.1;fill:none;stroke:#191326;stroke-width:3;enable-background:new    ;}
	.st3{fill:#FFFFFF;}
	.st4{fill:#EFE149;}
	.st5{fill:#FB2C0D;}
	.st6{fill:#F0C03E;}
	.st7{fill:#F84616;}
	.st8{fill:#F29D33;}
	.st9{fill:#F84415;}
	.st10{fill:#F1BC3D;}
	.st11{fill:#F57C28;}
	.st12{fill:#F46F24;}
	.st13{fill:#F4611F;}
	.st14{fill:#F48C2D;}
	.st15{fill:#F2A636;}
	.st16{fill:#F6561B;}
	.st17{fill:#FEFD52;}
	.st18{fill:#F1CF43;}
	.st19{fill:#EEDD47;}
	.st20{fill:#EEDB47;}
	.st21{fill:#EFC941;}
	.st22{fill:#F0BB3C;}
	.st23{fill:#EFCF43;}
	.st24{fill:#EFD244;}
	.st25{fill:#EFBD3D;}
	.st26{fill:#EED846;}
	.st27{fill:#F2902F;}
	.st28{fill:#F1AC37;}
	.st29{fill:#F19E33;}
	.st30{fill:#F49C32;}
	.st31{fill:#F1A836;}
	.st32{fill:#F0B73B;}
	.st33{fill:#F2892C;}
</style>
<g>
	<path class="st0" d="M172.4,95c-1-7.8-6.2-14.9-13.3-18.2c-8.6-4-18.7-2.6-27.8-5.3c-11.8-3.5-20.4-13.3-30.9-19.8
		C88,44.1,73.2,41.4,58.8,38.8C49.2,37.1,39.1,35.5,30,39c-12.3,4.9-19.5,20-15.5,32.6c6.8,21.4,37,27.1,46.2,47.6
		c4.8,10.6,3.2,24.1,10.7,32.9c9,10.5,25.5,8.7,38.9,5.5c10.2-2.5,20.3-5.3,30.4-8.2c8.2-2.3,16.8-4.8,22.8-10.8
		c7.5-7.4,4.4-13.1,4.3-21.7C167.9,109.5,173.5,103.3,172.4,95z"/>
</g>
<circle class="st1" cx="70.2" cy="39.8" r="29"/>
<circle class="st2" cx="70.2" cy="39.8" r="27.5"/>
<g>
	<path class="st3" d="M63.9,37.2l6.3-6.3l6.3,6.3l3.7-3.7l-9.9-9.9l-9.9,9.9L63.9,37.2z M54,39.8l3.7-3.7l3.7,3.7l-3.7,3.7L54,39.8z
		 M63.9,42.4l6.3,6.3l6.3-6.3l3.7,3.7l-10,9.9l-9.9-10l0,0L63.9,42.4z M79.1,39.8l3.7-3.7l3.7,3.7l-3.7,3.7L79.1,39.8z M73.9,39.8
		L73.9,39.8L73.9,39.8l-3.7,3.7l-3.7-3.7l0,0l0,0l0.6-0.7l0.3-0.3l2.7-2.7L73.9,39.8L73.9,39.8z"/>
</g>
<g>
	<path d="M119.6,40.3c23.8,0,43.1,19.3,43.1,43.1c0,23.8-19.3,43.1-43.1,43.1c-23.8,0-43.1-19.3-43.1-43.1
		C76.5,59.6,95.8,40.3,119.6,40.3z"/>
	<path class="st4" d="M80.1,87.1c-2.3-15.1,6.9-32,21.5-39.3c4.5-2.3,9.2-3.8,14.3-4c2.5,0.3,5,0,7.5,0c9.7,0.7,17.9,4.7,24.6,11.6
		c8.5,8.7,12.3,19.1,11.3,31.3c-0.4,0.1-0.6-0.1-0.8-0.4c-0.6-2.2,0.1-4.5-0.5-6.9c-0.6,0.3-0.5,1.3-1.3,1.2c-0.8-0.7-0.9-1.6-1-2.6
		c-2.5-17.7-18.4-31.6-37-30.9c-9.1,0.3-17,3.6-23.7,9.9c-6.4,6.1-10.2,13.4-11.3,22.1c-0.1,1-0.3,2-0.5,3c0,1.3-1.8,0.4-2,1.5
		c-0.2,1,0.1,2-0.2,3C80.7,87,80.5,87.3,80.1,87.1z"/>
	<path class="st5" d="M136.3,119.5c-9.8,4.7-19.8,4.9-29.9,1.5c-1.2-0.4-2.4-0.7-3.4-1.5c1.1-1.4,2.9-1,4.3-1.7
		c2.3,0.1,4.4,1.1,6.7,1.4c5.4,0.9,10.7,0.5,15.9-1c0.7-0.2,1.4-0.4,2.2-0.4C133.5,118.1,135.3,117.7,136.3,119.5z"/>
	<path class="st6" d="M80.1,87.1c1-1.7,0-3.5,0.6-5.3c0.8-0.6,1,1.9,2,0.5c0.9,0.8,0.6,1.9,0.7,2.9c0.2,2.1,0.6,4.2,0.8,6.3
		c0.2,2-1.6,2-2.8,2.8C80.5,91.9,80.1,89.6,80.1,87.1z"/>
	<path class="st7" d="M136.3,119.5c-1.2-1-2.8-0.7-4.1-1.3c0-0.1,0-0.3,0.2-0.4c3-1.6,5.9-3.5,9.1-4.8c1.1,0.2,2.2,0.4,2.8,1.6
		C141.9,116.7,139.2,118.3,136.3,119.5z"/>
	<path class="st8" d="M157.3,96c-0.8,2.7-1.8,5.3-3.5,7.5c-0.8-0.5-2.1-0.4-2.5-1.6c0.9-2.9,2.1-5.6,3.6-8.2
		C156.5,93.6,157.5,94.2,157.3,96z"/>
	<path class="st9" d="M107,118.2c-1.1,1.1-2.8,0.7-4.1,1.3c-2.3-0.8-4.3-2-6.2-3.5c0.3-1.8,1.9-1.3,3.1-1.6
		C102.4,115.3,104.9,116.3,107,118.2z"/>
	<path class="st10" d="M157.3,96c-0.1-1.3-1.4-1.6-2.2-2.2c-0.6-2.4,0-4.6,1.1-6.7c0.6,0.1,0.5,0.5,0.5,0.6c0.1-0.9,0.1-2.3,2-1.4
		c0.1,0.1,0.3,0.3,0.4,0.4C159.3,89.9,158.3,92.9,157.3,96z"/>
	<path class="st11" d="M151.6,102c0.8,0.3,2,0.2,2.2,1.4c-1.1,2.6-2.9,4.7-4.8,6.6c-0.9-0.6-1.6-1.3-2-2.3
		C148.4,105.8,149.3,103.4,151.6,102z"/>
	<path class="st12" d="M91.9,111.9c-1.7-1.4-3.2-3-4.3-4.9c-0.2-1.8,0.6-2.4,2.3-2c2,1.8,4.2,3.4,5.4,6
		C94.4,112,93.1,111.8,91.9,111.9z"/>
	<path class="st13" d="M147.3,108c0.7,0.6,1.8,0.9,1.8,2.1c-1.4,1.7-2.9,3.2-4.8,4.5c-0.9-0.5-1.8-0.9-2.8-1.4
		C143.1,111.1,144.5,108.8,147.3,108z"/>
	<path class="st14" d="M89.8,105.3c-1.4-0.2-1.8,0.7-2.1,1.8c-1.7-2-3-4.2-4-6.6c-0.1-1.5,0.9-1.9,2.1-1.9
		C87.7,100.3,89.2,102.6,89.8,105.3z"/>
	<path class="st15" d="M85.8,98.5c-0.6,0.7-2,0.6-2.2,1.9c-1.2-1.9-1.8-4-2.3-6.2c0.7-0.3,0.1-2.7,2-1.3c0.1-0.3,0.2-0.7,0.3-1
		C85.4,93.8,85.8,96.1,85.8,98.5z"/>
	<path class="st16" d="M91.9,111.9c0.9-0.9,2-0.9,3.1-0.9c2.2,0.4,3.7,1.9,4.9,3.6c-1,0.6-2.5-0.1-3.2,1.2
		C94.9,114.9,93.3,113.6,91.9,111.9z"/>
	<path class="st17" d="M123.4,43.8c-2.5,0.7-5,0.7-7.5,0C118.4,43.4,120.9,43.4,123.4,43.8z"/>
	<path d="M99.9,114.7c-1.6-1.2-3.2-2.4-4.9-3.6c-1.8-1.9-3.5-3.9-5.3-5.8c-1.3-2.2-2.6-4.5-3.9-6.7c-0.7-2.2-1.5-4.4-2.2-6.6
		c-0.5-3.2-0.9-6.4-1-9.7c1.1-14.7,7.9-25.7,21.3-32.2c22.2-10.8,49,3.8,52.2,28.3c0.1,0.7,0.2,1.4,0.4,2.2c1,2.2,1.1,4.4-0.1,6.5
		c-0.4,2.2-0.9,4.5-1.3,6.7c-1.2,2.8-2.4,5.5-3.6,8.3c-1.4,2-2.9,4-4.3,5.9c-1.9,1.7-3.9,3.5-5.8,5.2c-2.9,2-6,3.6-9.3,5
		c-8.4,2.8-16.8,2.8-25.2,0C104.6,117,102.3,115.8,99.9,114.7z"/>
	<path class="st18" d="M156.5,87c0-2.2,0-4.3,0.1-6.5c0.1-0.2,0.3-0.3,0.4-0.5c0.3-0.7-0.4-2,0.7-1.9c1,0.1,1,1.4,1.1,2.3
		c0.1,2,0,3.9,0,5.9c-1.7-0.2-1.9,1-2.1,2.2C156.6,88,156.5,87.5,156.5,87z"/>
	<path class="st19" d="M132.1,79.9c1.4-3.4,2.1-6.9,5.3-9.6c1.6-1.3,2.5-3.8,4.1-5.6c0.8-0.9,1.7-1.9,2.8-2.5
		c0.6-0.4,1.3-1.4,2.1-0.7c0.8,0.7,0.7,1.9,0.3,2.9c-0.1,0.3-0.4,0.6-0.6,0.9c-3.4,3.6-5.7,7.8-7.3,12.4c-0.6,1.7-1.8,3.2-2.1,5
		c-1.1-1.2-2.2-2.5-4.2-2.1C132.1,80.6,132,80.2,132.1,79.9z"/>
	<path class="st20" d="M103.1,77.2c0.5,0.1,1-0.1,1-0.5c0.3-2,1.8-3.5,2.4-5.4c1-3.1,3.4-4.4,6.3-5.1c0.7-0.2,2-0.5,2-0.1
		c0,1.2,1.5,1.9,0.8,3.4c-2.2,4-4.2,8.2-6.8,12c-0.7-1.2-0.7-1.2,0.7-2.2c-1.9,0.3-3.8,0.3-5.6-0.5C103.3,78.3,102.6,78,103.1,77.2z
		"/>
	<path class="st21" d="M132.1,79.9c0.2,0.1,0.4,0.4,0.5,0.3c2.3-0.7,3.6,0.1,3.9,2.5c0,0.1,0,0.2,0,0.2c-1,2.4-2,4.7-3,7.1
		c-0.9-1.9-2.5-2.3-4.5-2.2c-1.7,0.1-3.5,0.1-5.2,0c-0.8-0.1-1.8,0.1-1.9-1.2c0.4-1.9,1.4-3.6,2.2-5.2c2.2-0.7,4.5-0.9,6.7,0
		C131.8,81.3,131.6,80.3,132.1,79.9z"/>
	<path class="st22" d="M122,86.6c0.6,0.8,1.4,0.5,2.2,0.5c2.1,0,4.2,0.1,6.3,0c2.2-0.2,3.3,0.5,3.1,2.9c-0.3,1.1-0.7,2.2-1,3.3
		c-0.3,0.1-0.6-0.1-0.7-0.4c-0.8-2.4-1-2.5-3.5-1.6c-0.5,0.2-1.1,0.6-1.5-0.2c-0.1-0.7-0.2-1.4-0.3-2.4c-1.7,1.3-1.3,3.4-2.4,4.6
		c-2.4-0.8-4.8-1.2-7.2,0c-0.3,0.2-0.5-0.2-0.3-0.5c-0.4-0.8-0.5-1.7-0.4-2.5c0.5-0.8,0-1.7,0-2.6c0-1.2-0.2-2.6,1.6-2.9
		c1.6-0.2,2.9,0,3.3,1.9C121.5,86.7,121.7,86.6,122,86.6z"/>
	<path class="st23" d="M103.9,78.3c1.8,0.4,3.6,0.5,5.3,0.5c0.7,1.1-1.3,1.5-0.4,2.6c-1.1,1.9-1.9,4-2.2,6.2
		c-1.5-1.1-2.8-2.2-4.7-0.6c-0.9,0.7-0.4-0.8-0.9-1.1c-1.6-1.4-0.8-3.7-1.8-5.3c-0.6-1.6,0-2.3,1.6-2.4
		C101.8,78.1,102.9,77.7,103.9,78.3z"/>
	<path class="st24" d="M121.2,86.7c-0.8-1.6-2.2-1.4-3.5-1.3c-0.9,0.1-0.9,0.8-0.9,1.4c-0.1,1.1,0.4,2.4-0.4,3.4
		c-0.5-4.7,0.3-9.5-0.1-14.2c-0.1-0.9,0.4-1.4,1.3-1.4c1.8,0,4.4,2.5,4.1,4.2C121.1,81.4,121.6,84.1,121.2,86.7z"/>
	<path class="st20" d="M103.9,78.3c-1.3,0.2-2.6,0.4-3.9,0.4c-1.5,0-0.1,1.4-0.9,1.8c-1.2-2.3-3.4-3.9-4.1-6.6c-0.5-2.1,1-2.3,2-3
		c1.1-0.7,2.2-0.7,2.9,0.7c1,1.9,2.1,3.8,3.1,5.6C103.1,77.8,103.7,77.9,103.9,78.3z"/>
	<path class="st25" d="M100.9,85.8c0.5-0.2-0.1,1.3,0.9,0.5c1.9-1.6,3.7-1,4.7,1.2c-0.4,1.6-0.8,3.1-1.2,4.7c0.2,0.8,0.3,1.6,0,2.3
		c-0.5,0.2-0.7-0.1-0.9-0.4c-0.6-0.9-1.4-1.2-2.4-1c-1.1,0.2-0.8,1.2-1,1.9c-0.2,0.7,0.1,1.7-1.1,1.8c-1-2.6,0-5.1,0.4-7.6
		C100.5,88.1,101.1,87,100.9,85.8z"/>
	<path class="st26" d="M130.9,81.4c-2.2,0-4.5,0-6.7,0c0.8-2,1.5-4.1,2.4-6.1c0.3-0.8,0.9-1.5,1.8-1.8c0.7-0.2,1.5-0.3,1.7,0.5
		c0.4,1.6,1,3.4,0.7,4.9C130.5,79.8,131,80.5,130.9,81.4z"/>
	<path class="st27" d="M104.3,99.5c0,0.9,0.1,1.8,0,2.6c-0.2,0.8,0.7,2.9-1.7,1.4c-1-0.6-1.5,0.8-1.7,1.7c-0.1,0.5-0.2,1.2-0.8,1.2
		c-0.8,0-0.7-0.8-0.8-1.3c-0.4-2.7-0.7-5.4,0.6-7.9c0.6,0.6,1.2,0.6,2,0.5C103.1,97.6,104.1,98.1,104.3,99.5z"/>
	<path class="st28" d="M116.7,92.8c2.1-1.3,6.1-1,7.6,0.6c-0.3,1.5-1.1,2.7-1.8,4c-2-0.6-4.1-1.6-5.9,0.6c-0.8-0.7-0.2-1.6-0.6-2.3
		C115.1,94.3,115.7,93.5,116.7,92.8z"/>
	<path class="st29" d="M131.3,97.3c-0.4,1.3-0.9,2.4-1.6,3.6c-0.5,0.8-1.1,1.1-2,0.9c-0.8-0.2-1.1-0.7-1.3-1.5
		c-0.4-2.1-0.4-4.2,0.5-6.2c0.4,0.1,0.9,0,1.3-0.1c2.4-0.4,3,0.1,3,2.5C131.1,96.7,131.1,97,131.3,97.3z"/>
	<path class="st30" d="M115.9,95.6c0.6,0.5,0.2,1.3,0.5,1.9c1.3-2.1,3.9-2.1,6-0.1c-0.6,1.6-1.2,3.2-1.8,4.9c-0.4,0.1-0.7-0.1-1-0.3
		c-1.8-1-2.1-0.9-2.9,0.9c-0.2,0.4-0.2,1.1-1,0.8c-1-1.9,0.2-3.7,0.1-5.6C115.8,97.2,115.9,96.4,115.9,95.6z"/>
	<path class="st31" d="M104.3,99.5c-0.7-1.4-1.9-1.5-3.1-1.3c-1,0.2-1.3-0.2-1.3-1c-0.1-0.1-0.1-0.2,0-0.3c0.7-0.5,0.4-1.3,0.5-2
		c0.2-0.9-0.6-2.4,1.1-2.3c1.3,0,3.5-1.2,3.7,1.7c0-0.6,0.1-1.3,0.1-1.9C106.3,94.8,105.3,97.2,104.3,99.5z"/>
	<path class="st32" d="M131.3,97.3c-0.4-0.3-0.4-0.8-0.4-1.2c0-1.8-1.1-2-2.5-1.7c-0.6,0.1-1.3,1.1-1.6-0.3c0-1,0.1-1.9,0.1-2.9
		c1.3,0.2,2-1.2,3.4-1c1.3,0.2,2.4,0.1,1.9,1.9c-0.1,0.4,0,0.9,0.3,1.2C132.4,94.7,131.1,95.8,131.3,97.3z"/>
	<path class="st33" d="M115.7,103.6c0.1-0.2,0.4-0.3,0.4-0.5c0.1-1.2,0.1-2.3,1.7-2.6c1.4-0.2,2.1,0.7,2.8,1.6
		c-0.1,2.2-2.5,2.8-3.2,4.8C116.3,106.1,116.2,104.7,115.7,103.6z"/>
</g>
</svg>
